solid OpenSCAD_Model
  facet normal -1 0 0
    outer loop
      vertex 0 19.177 30.939
      vertex 0 30 52.95
      vertex 0 30 7.5
    endloop
  endfacet
  facet normal -1 0 0
    outer loop
      vertex 0 30 52.95
      vertex 0 19.9455 51.3431
      vertex 0 20.1715 52.4065
    endloop
  endfacet
  facet normal -1 0 0
    outer loop
      vertex 0 18.9944 31.7979
      vertex 0 30 52.95
      vertex 0 19.177 30.939
    endloop
  endfacet
  facet normal -1 0 0
    outer loop
      vertex 0 19.177 30.939
      vertex 0 30 7.5
      vertex 0 19.177 30.061
    endloop
  endfacet
  facet normal -1 0 0
    outer loop
      vertex 0 30 7.5
      vertex 0 18.9944 29.2021
      vertex 0 19.177 30.061
    endloop
  endfacet
  facet normal -1 0 0
    outer loop
      vertex 0 30 7.5
      vertex 0 18.6373 28.4
      vertex 0 18.9944 29.2021
    endloop
  endfacet
  facet normal -1 0 0
    outer loop
      vertex 0 30 7.5
      vertex 0 18.1212 27.6897
      vertex 0 18.6373 28.4
    endloop
  endfacet
  facet normal -1 0 0
    outer loop
      vertex 0 30 7.5
      vertex 0 17.4687 27.1021
      vertex 0 18.1212 27.6897
    endloop
  endfacet
  facet normal -1 0 0
    outer loop
      vertex 0 30 7.5
      vertex 0 16.7083 26.6631
      vertex 0 17.4687 27.1021
    endloop
  endfacet
  facet normal -1 0 0
    outer loop
      vertex 0 30 7.5
      vertex 0 15.8732 26.3918
      vertex 0 16.7083 26.6631
    endloop
  endfacet
  facet normal -1 0 0
    outer loop
      vertex 0 30 7.5
      vertex 0 15 26.3
      vertex 0 15.8732 26.3918
    endloop
  endfacet
  facet normal -1 0 0
    outer loop
      vertex 0 0 7.5
      vertex 0 15 26.3
      vertex 0 30 7.5
    endloop
  endfacet
  facet normal -1 -0 0
    outer loop
      vertex 0 15 26.3
      vertex 0 0 7.5
      vertex 0 14.1268 26.3918
    endloop
  endfacet
  facet normal -1 -0 0
    outer loop
      vertex 0 14.1268 26.3918
      vertex 0 0 7.5
      vertex 0 13.2917 26.6631
    endloop
  endfacet
  facet normal -1 -0 0
    outer loop
      vertex 0 13.2917 26.6631
      vertex 0 0 7.5
      vertex 0 12.5313 27.1021
    endloop
  endfacet
  facet normal -1 0 0
    outer loop
      vertex 0 0 52.95
      vertex 0 10.823 30.939
      vertex 0 10.823 30.061
    endloop
  endfacet
  facet normal -1 0 0
    outer loop
      vertex 0 10.823 30.939
      vertex 0 0 52.95
      vertex 0 10.4967 50.35
    endloop
  endfacet
  facet normal -1 0 0
    outer loop
      vertex 0 10.4967 50.35
      vertex 0 0 52.95
      vertex 0 10.0545 51.3431
    endloop
  endfacet
  facet normal -1 -0 0
    outer loop
      vertex 0 12.5313 27.1021
      vertex 0 0 7.5
      vertex 0 11.8788 27.6897
    endloop
  endfacet
  facet normal -1 0 0
    outer loop
      vertex 0 0 7.5
      vertex 0 11.3627 28.4
      vertex 0 11.8788 27.6897
    endloop
  endfacet
  facet normal -1 0 0
    outer loop
      vertex 0 0 7.5
      vertex 0 11.0056 29.2021
      vertex 0 11.3627 28.4
    endloop
  endfacet
  facet normal -1 0 0
    outer loop
      vertex 0 0 7.5
      vertex 0 10.823 30.061
      vertex 0 11.0056 29.2021
    endloop
  endfacet
  facet normal -1 0 0
    outer loop
      vertex 0 0 52.95
      vertex 0 10.823 30.061
      vertex 0 0 7.5
    endloop
  endfacet
  facet normal -1 0 0
    outer loop
      vertex 0 10.0545 51.3431
      vertex 0 0 52.95
      vertex 0 9.82849 52.4065
    endloop
  endfacet
  facet normal -1 0 0
    outer loop
      vertex 0 9.82849 52.4065
      vertex 0 0 52.95
      vertex 0 9.82849 52.95
    endloop
  endfacet
  facet normal -1 -0 0
    outer loop
      vertex 0 30 52.95
      vertex 0 20.1715 52.4065
      vertex 0 20.1715 52.95
    endloop
  endfacet
  facet normal -1 0 0
    outer loop
      vertex 0 18.6373 32.6
      vertex 0 30 52.95
      vertex 0 18.9944 31.7979
    endloop
  endfacet
  facet normal -1 0 0
    outer loop
      vertex 0 30 52.95
      vertex 0 19.5033 50.35
      vertex 0 19.9455 51.3431
    endloop
  endfacet
  facet normal -1 0 0
    outer loop
      vertex 0 18.1212 33.3103
      vertex 0 30 52.95
      vertex 0 18.6373 32.6
    endloop
  endfacet
  facet normal -1 0 0
    outer loop
      vertex 0 30 52.95
      vertex 0 18.8644 49.4705
      vertex 0 19.5033 50.35
    endloop
  endfacet
  facet normal -1 0 0
    outer loop
      vertex 0 30 52.95
      vertex 0 18.1212 33.3103
      vertex 0 18.8644 49.4705
    endloop
  endfacet
  facet normal -1 0 0
    outer loop
      vertex 0 18.1212 33.3103
      vertex 0 18.0565 48.7431
      vertex 0 18.8644 49.4705
    endloop
  endfacet
  facet normal -1 0 0
    outer loop
      vertex 0 17.4687 33.8979
      vertex 0 18.0565 48.7431
      vertex 0 18.1212 33.3103
    endloop
  endfacet
  facet normal -1 0 0
    outer loop
      vertex 0 17.4687 33.8979
      vertex 0 17.115 48.1996
      vertex 0 18.0565 48.7431
    endloop
  endfacet
  facet normal -1 0 0
    outer loop
      vertex 0 16.7083 34.3369
      vertex 0 17.115 48.1996
      vertex 0 17.4687 33.8979
    endloop
  endfacet
  facet normal -1 0 0
    outer loop
      vertex 0 16.7083 34.3369
      vertex 0 16.0811 47.8636
      vertex 0 17.115 48.1996
    endloop
  endfacet
  facet normal -1 0 0
    outer loop
      vertex 0 15.8732 34.6082
      vertex 0 16.0811 47.8636
      vertex 0 16.7083 34.3369
    endloop
  endfacet
  facet normal -1 0 0
    outer loop
      vertex 0 15 47.75
      vertex 0 15.8732 34.6082
      vertex 0 15 34.7
    endloop
  endfacet
  facet normal -1 0 0
    outer loop
      vertex 0 15.8732 34.6082
      vertex 0 15 47.75
      vertex 0 16.0811 47.8636
    endloop
  endfacet
  facet normal -1 0 0
    outer loop
      vertex 0 14.1268 34.6082
      vertex 0 15 47.75
      vertex 0 15 34.7
    endloop
  endfacet
  facet normal -1 0 0
    outer loop
      vertex 0 14.1268 34.6082
      vertex 0 13.9189 47.8636
      vertex 0 15 47.75
    endloop
  endfacet
  facet normal -1 0 0
    outer loop
      vertex 0 13.2917 34.3369
      vertex 0 13.9189 47.8636
      vertex 0 14.1268 34.6082
    endloop
  endfacet
  facet normal -1 0 0
    outer loop
      vertex 0 13.2917 34.3369
      vertex 0 12.885 48.1996
      vertex 0 13.9189 47.8636
    endloop
  endfacet
  facet normal -1 0 0
    outer loop
      vertex 0 12.5313 33.8979
      vertex 0 12.885 48.1996
      vertex 0 13.2917 34.3369
    endloop
  endfacet
  facet normal -1 0 0
    outer loop
      vertex 0 12.5313 33.8979
      vertex 0 11.9435 48.7431
      vertex 0 12.885 48.1996
    endloop
  endfacet
  facet normal -1 0 0
    outer loop
      vertex 0 11.8788 33.3103
      vertex 0 11.9435 48.7431
      vertex 0 12.5313 33.8979
    endloop
  endfacet
  facet normal -1 0 0
    outer loop
      vertex 0 11.1356 49.4705
      vertex 0 11.8788 33.3103
      vertex 0 11.3627 32.6
    endloop
  endfacet
  facet normal -1 0 0
    outer loop
      vertex 0 11.8788 33.3103
      vertex 0 11.1356 49.4705
      vertex 0 11.9435 48.7431
    endloop
  endfacet
  facet normal -1 0 0
    outer loop
      vertex 0 10.4967 50.35
      vertex 0 11.3627 32.6
      vertex 0 11.0056 31.7979
    endloop
  endfacet
  facet normal -1 0 0
    outer loop
      vertex 0 10.4967 50.35
      vertex 0 11.0056 31.7979
      vertex 0 10.823 30.939
    endloop
  endfacet
  facet normal -1 0 0
    outer loop
      vertex 0 11.3627 32.6
      vertex 0 10.4967 50.35
      vertex 0 11.1356 49.4705
    endloop
  endfacet
  facet normal -0 0 1
    outer loop
      vertex 0 9.82849 52.95
      vertex 10 0 52.95
      vertex 10 9.82849 52.95
    endloop
  endfacet
  facet normal 0 0 1
    outer loop
      vertex 10 0 52.95
      vertex 0 9.82849 52.95
      vertex 0 0 52.95
    endloop
  endfacet
  facet normal -0 0 1
    outer loop
      vertex 0 30 52.95
      vertex 10 20.1715 52.95
      vertex 10 30 52.95
    endloop
  endfacet
  facet normal 0 0 1
    outer loop
      vertex 10 20.1715 52.95
      vertex 0 30 52.95
      vertex 0 20.1715 52.95
    endloop
  endfacet
  facet normal 1 0 0
    outer loop
      vertex 10 9.82849 52.95
      vertex 10 0 52.95
      vertex 10 9.82849 52.4065
    endloop
  endfacet
  facet normal 1 -0 0
    outer loop
      vertex 10 18.9944 15.9979
      vertex 10 30 2.5
      vertex 10 18.9944 29.2021
    endloop
  endfacet
  facet normal 1 0 0
    outer loop
      vertex 10 30 2.5
      vertex 10 18.9944 15.9979
      vertex 10 19.177 15.139
    endloop
  endfacet
  facet normal 1 -0 0
    outer loop
      vertex 10 18.6373 28.4
      vertex 10 18.9944 15.9979
      vertex 10 18.9944 29.2021
    endloop
  endfacet
  facet normal 1 0 0
    outer loop
      vertex 10 18.6373 28.4
      vertex 10 18.6373 16.8
      vertex 10 18.9944 15.9979
    endloop
  endfacet
  facet normal 1 -0 0
    outer loop
      vertex 10 18.1212 27.6897
      vertex 10 18.6373 16.8
      vertex 10 18.6373 28.4
    endloop
  endfacet
  facet normal 1 0 0
    outer loop
      vertex 10 18.1212 27.6897
      vertex 10 18.1212 17.5103
      vertex 10 18.6373 16.8
    endloop
  endfacet
  facet normal 1 -0 0
    outer loop
      vertex 10 17.4687 27.1021
      vertex 10 18.1212 17.5103
      vertex 10 18.1212 27.6897
    endloop
  endfacet
  facet normal 1 0 0
    outer loop
      vertex 10 17.4687 27.1021
      vertex 10 17.4687 18.0979
      vertex 10 18.1212 17.5103
    endloop
  endfacet
  facet normal 1 -0 0
    outer loop
      vertex 10 16.7083 26.6631
      vertex 10 17.4687 18.0979
      vertex 10 17.4687 27.1021
    endloop
  endfacet
  facet normal 1 0 0
    outer loop
      vertex 10 16.7083 26.6631
      vertex 10 16.7083 18.5369
      vertex 10 17.4687 18.0979
    endloop
  endfacet
  facet normal 1 -0 0
    outer loop
      vertex 10 15.8732 26.3918
      vertex 10 16.7083 18.5369
      vertex 10 16.7083 26.6631
    endloop
  endfacet
  facet normal 1 0 0
    outer loop
      vertex 10 15.8732 26.3918
      vertex 10 15.8732 18.8082
      vertex 10 16.7083 18.5369
    endloop
  endfacet
  facet normal 1 -0 0
    outer loop
      vertex 10 15 26.3
      vertex 10 15.8732 18.8082
      vertex 10 15.8732 26.3918
    endloop
  endfacet
  facet normal 1 0 0
    outer loop
      vertex 10 15 26.3
      vertex 10 15 18.9
      vertex 10 15.8732 18.8082
    endloop
  endfacet
  facet normal 1 0 0
    outer loop
      vertex 10 14.1268 26.3918
      vertex 10 15 18.9
      vertex 10 15 26.3
    endloop
  endfacet
  facet normal 1 0 0
    outer loop
      vertex 10 14.1268 26.3918
      vertex 10 14.1268 18.8082
      vertex 10 15 18.9
    endloop
  endfacet
  facet normal 1 0 0
    outer loop
      vertex 10 13.2917 26.6631
      vertex 10 14.1268 18.8082
      vertex 10 14.1268 26.3918
    endloop
  endfacet
  facet normal 1 0 0
    outer loop
      vertex 10 13.2917 26.6631
      vertex 10 13.2917 18.5369
      vertex 10 14.1268 18.8082
    endloop
  endfacet
  facet normal 1 0 0
    outer loop
      vertex 10 12.5313 27.1021
      vertex 10 13.2917 18.5369
      vertex 10 13.2917 26.6631
    endloop
  endfacet
  facet normal 1 0 0
    outer loop
      vertex 10 12.5313 27.1021
      vertex 10 12.5313 18.0979
      vertex 10 13.2917 18.5369
    endloop
  endfacet
  facet normal 1 0 0
    outer loop
      vertex 10 11.8788 27.6897
      vertex 10 12.5313 18.0979
      vertex 10 12.5313 27.1021
    endloop
  endfacet
  facet normal 1 0 0
    outer loop
      vertex 10 11.8788 27.6897
      vertex 10 11.8788 17.5103
      vertex 10 12.5313 18.0979
    endloop
  endfacet
  facet normal 1 0 0
    outer loop
      vertex 10 11.3627 28.4
      vertex 10 11.8788 17.5103
      vertex 10 11.8788 27.6897
    endloop
  endfacet
  facet normal 1 0 0
    outer loop
      vertex 10 11.3627 28.4
      vertex 10 11.3627 16.8
      vertex 10 11.8788 17.5103
    endloop
  endfacet
  facet normal 1 0 0
    outer loop
      vertex 10 11.0056 29.2021
      vertex 10 11.3627 16.8
      vertex 10 11.3627 28.4
    endloop
  endfacet
  facet normal 1 0 0
    outer loop
      vertex 10 11.0056 29.2021
      vertex 10 11.0056 15.9979
      vertex 10 11.3627 16.8
    endloop
  endfacet
  facet normal 1 0 0
    outer loop
      vertex 10 0 2.5
      vertex 10 11.0056 29.2021
      vertex 10 10.823 30.061
    endloop
  endfacet
  facet normal 1 0 0
    outer loop
      vertex 10 11.0056 29.2021
      vertex 10 0 2.5
      vertex 10 11.0056 15.9979
    endloop
  endfacet
  facet normal 1 0 0
    outer loop
      vertex 10 30 52.95
      vertex 10 18.9944 31.7979
      vertex 10 19.177 30.939
    endloop
  endfacet
  facet normal 1 0 0
    outer loop
      vertex 10 18.1212 33.3103
      vertex 10 30 52.95
      vertex 10 18.8644 49.4705
    endloop
  endfacet
  facet normal 1 0 0
    outer loop
      vertex 10 30 52.95
      vertex 10 18.6373 32.6
      vertex 10 18.9944 31.7979
    endloop
  endfacet
  facet normal 1 0 0
    outer loop
      vertex 10 30 52.95
      vertex 10 18.1212 33.3103
      vertex 10 18.6373 32.6
    endloop
  endfacet
  facet normal 1 -0 0
    outer loop
      vertex 10 18.0565 48.7431
      vertex 10 18.1212 33.3103
      vertex 10 18.8644 49.4705
    endloop
  endfacet
  facet normal 1 0 0
    outer loop
      vertex 10 18.0565 48.7431
      vertex 10 17.4687 33.8979
      vertex 10 18.1212 33.3103
    endloop
  endfacet
  facet normal 1 -0 0
    outer loop
      vertex 10 17.115 48.1996
      vertex 10 17.4687 33.8979
      vertex 10 18.0565 48.7431
    endloop
  endfacet
  facet normal 1 0 0
    outer loop
      vertex 10 17.115 48.1996
      vertex 10 16.7083 34.3369
      vertex 10 17.4687 33.8979
    endloop
  endfacet
  facet normal 1 -0 0
    outer loop
      vertex 10 16.0811 47.8636
      vertex 10 16.7083 34.3369
      vertex 10 17.115 48.1996
    endloop
  endfacet
  facet normal 1 0 0
    outer loop
      vertex 10 16.0811 47.8636
      vertex 10 15.8732 34.6082
      vertex 10 16.7083 34.3369
    endloop
  endfacet
  facet normal 1 -0 0
    outer loop
      vertex 10 15 47.75
      vertex 10 15.8732 34.6082
      vertex 10 16.0811 47.8636
    endloop
  endfacet
  facet normal 1 0 0
    outer loop
      vertex 10 15 47.75
      vertex 10 15 34.7
      vertex 10 15.8732 34.6082
    endloop
  endfacet
  facet normal 1 0 0
    outer loop
      vertex 10 15 47.75
      vertex 10 14.1268 34.6082
      vertex 10 15 34.7
    endloop
  endfacet
  facet normal 1 0 0
    outer loop
      vertex 10 13.9189 47.8636
      vertex 10 14.1268 34.6082
      vertex 10 15 47.75
    endloop
  endfacet
  facet normal 1 0 0
    outer loop
      vertex 10 13.9189 47.8636
      vertex 10 13.2917 34.3369
      vertex 10 14.1268 34.6082
    endloop
  endfacet
  facet normal 1 0 0
    outer loop
      vertex 10 12.885 48.1996
      vertex 10 13.2917 34.3369
      vertex 10 13.9189 47.8636
    endloop
  endfacet
  facet normal 1 0 0
    outer loop
      vertex 10 12.885 48.1996
      vertex 10 12.5313 33.8979
      vertex 10 13.2917 34.3369
    endloop
  endfacet
  facet normal 1 0 0
    outer loop
      vertex 10 11.9435 48.7431
      vertex 10 12.5313 33.8979
      vertex 10 12.885 48.1996
    endloop
  endfacet
  facet normal 1 0 0
    outer loop
      vertex 10 11.9435 48.7431
      vertex 10 11.8788 33.3103
      vertex 10 12.5313 33.8979
    endloop
  endfacet
  facet normal 1 0 0
    outer loop
      vertex 10 11.1356 49.4705
      vertex 10 11.8788 33.3103
      vertex 10 11.9435 48.7431
    endloop
  endfacet
  facet normal 1 0 0
    outer loop
      vertex 10 0 52.95
      vertex 10 11.8788 33.3103
      vertex 10 11.1356 49.4705
    endloop
  endfacet
  facet normal 1 0 0
    outer loop
      vertex 10 11.8788 33.3103
      vertex 10 0 52.95
      vertex 10 11.3627 32.6
    endloop
  endfacet
  facet normal 1 0 0
    outer loop
      vertex 10 11.3627 32.6
      vertex 10 0 52.95
      vertex 10 11.0056 31.7979
    endloop
  endfacet
  facet normal 1 0 0
    outer loop
      vertex 10 0 52.95
      vertex 10 10.823 30.061
      vertex 10 10.823 30.939
    endloop
  endfacet
  facet normal 1 0 0
    outer loop
      vertex 10 11.0056 15.9979
      vertex 10 0 2.5
      vertex 10 10.823 15.139
    endloop
  endfacet
  facet normal 1 0 0
    outer loop
      vertex 10 11.0056 31.7979
      vertex 10 0 52.95
      vertex 10 10.823 30.939
    endloop
  endfacet
  facet normal 1 0 0
    outer loop
      vertex 10 0 52.95
      vertex 10 11.1356 49.4705
      vertex 10 10.4967 50.35
    endloop
  endfacet
  facet normal 1 0 0
    outer loop
      vertex 10 20.1715 52.4065
      vertex 10 30 52.95
      vertex 10 20.1715 52.95
    endloop
  endfacet
  facet normal 1 0 0
    outer loop
      vertex 10 19.9455 51.3431
      vertex 10 30 52.95
      vertex 10 20.1715 52.4065
    endloop
  endfacet
  facet normal 1 0 0
    outer loop
      vertex 10 19.5033 50.35
      vertex 10 30 52.95
      vertex 10 19.9455 51.3431
    endloop
  endfacet
  facet normal 1 0 0
    outer loop
      vertex 10 18.8644 49.4705
      vertex 10 30 52.95
      vertex 10 19.5033 50.35
    endloop
  endfacet
  facet normal 1 0 0
    outer loop
      vertex 10 19.177 30.061
      vertex 10 30 52.95
      vertex 10 19.177 30.939
    endloop
  endfacet
  facet normal 1 0 0
    outer loop
      vertex 10 30 52.95
      vertex 10 19.177 30.061
      vertex 10 30 2.5
    endloop
  endfacet
  facet normal 1 -0 0
    outer loop
      vertex 10 18.9944 29.2021
      vertex 10 30 2.5
      vertex 10 19.177 30.061
    endloop
  endfacet
  facet normal 1 -0 0
    outer loop
      vertex 10 19.177 14.261
      vertex 10 30 2.5
      vertex 10 19.177 15.139
    endloop
  endfacet
  facet normal 1 -0 0
    outer loop
      vertex 10 18.9944 13.4021
      vertex 10 30 2.5
      vertex 10 19.177 14.261
    endloop
  endfacet
  facet normal 1 -0 0
    outer loop
      vertex 10 18.6373 12.6
      vertex 10 30 2.5
      vertex 10 18.9944 13.4021
    endloop
  endfacet
  facet normal 1 -0 0
    outer loop
      vertex 10 18.1212 11.8897
      vertex 10 30 2.5
      vertex 10 18.6373 12.6
    endloop
  endfacet
  facet normal 1 -0 0
    outer loop
      vertex 10 17.4687 11.3021
      vertex 10 30 2.5
      vertex 10 18.1212 11.8897
    endloop
  endfacet
  facet normal 1 -0 0
    outer loop
      vertex 10 16.7083 10.8631
      vertex 10 30 2.5
      vertex 10 17.4687 11.3021
    endloop
  endfacet
  facet normal 1 -0 0
    outer loop
      vertex 10 15.8732 10.5918
      vertex 10 30 2.5
      vertex 10 16.7083 10.8631
    endloop
  endfacet
  facet normal 1 -0 0
    outer loop
      vertex 10 15 10.5
      vertex 10 30 2.5
      vertex 10 15.8732 10.5918
    endloop
  endfacet
  facet normal 1 0 0
    outer loop
      vertex 10 0 2.5
      vertex 10 15 10.5
      vertex 10 14.1268 10.5918
    endloop
  endfacet
  facet normal 1 0 0
    outer loop
      vertex 10 0 2.5
      vertex 10 14.1268 10.5918
      vertex 10 13.2917 10.8631
    endloop
  endfacet
  facet normal 1 0 0
    outer loop
      vertex 10 0 52.95
      vertex 10 10.4967 50.35
      vertex 10 10.0545 51.3431
    endloop
  endfacet
  facet normal 1 0 0
    outer loop
      vertex 10 0 52.95
      vertex 10 10.0545 51.3431
      vertex 10 9.82849 52.4065
    endloop
  endfacet
  facet normal 1 0 0
    outer loop
      vertex 10 10.823 30.061
      vertex 10 0 52.95
      vertex 10 0 2.5
    endloop
  endfacet
  facet normal 1 0 0
    outer loop
      vertex 10 10.823 15.139
      vertex 10 0 2.5
      vertex 10 10.823 14.261
    endloop
  endfacet
  facet normal 1 0 0
    outer loop
      vertex 10 15 10.5
      vertex 10 0 2.5
      vertex 10 30 2.5
    endloop
  endfacet
  facet normal 1 0 0
    outer loop
      vertex 10 12.5313 11.3021
      vertex 10 0 2.5
      vertex 10 13.2917 10.8631
    endloop
  endfacet
  facet normal 1 0 0
    outer loop
      vertex 10 11.8788 11.8897
      vertex 10 0 2.5
      vertex 10 12.5313 11.3021
    endloop
  endfacet
  facet normal 1 0 0
    outer loop
      vertex 10 11.3627 12.6
      vertex 10 0 2.5
      vertex 10 11.8788 11.8897
    endloop
  endfacet
  facet normal 1 0 0
    outer loop
      vertex 10 11.0056 13.4021
      vertex 10 0 2.5
      vertex 10 11.3627 12.6
    endloop
  endfacet
  facet normal 1 0 0
    outer loop
      vertex 10 10.823 14.261
      vertex 10 0 2.5
      vertex 10 11.0056 13.4021
    endloop
  endfacet
  facet normal 0 1 0
    outer loop
      vertex 10 30 52.95
      vertex 0 30 7.5
      vertex 0 30 52.95
    endloop
  endfacet
  facet normal 0 1 -0
    outer loop
      vertex 10 30 2.5
      vertex 0 30 7.5
      vertex 10 30 52.95
    endloop
  endfacet
  facet normal 0 1 0
    outer loop
      vertex -15 30 2.5
      vertex 0 30 7.5
      vertex 10 30 2.5
    endloop
  endfacet
  facet normal 0 1 0
    outer loop
      vertex 0 30 7.5
      vertex -15 30 2.5
      vertex -15 30 7.5
    endloop
  endfacet
  facet normal 0 0 -1
    outer loop
      vertex 10 0 2.5
      vertex -6.12968 8.1101 2.5
      vertex 10 30 2.5
    endloop
  endfacet
  facet normal 0 0 -1
    outer loop
      vertex 10 30 2.5
      vertex -6.03278 22.1881 2.5
      vertex -6 22.5 2.5
    endloop
  endfacet
  facet normal 0 0 -1
    outer loop
      vertex -6.12968 21.8899 2.5
      vertex 10 30 2.5
      vertex -6.12968 8.1101 2.5
    endloop
  endfacet
  facet normal 0 0 -1
    outer loop
      vertex 10 30 2.5
      vertex -6.12968 21.8899 2.5
      vertex -6.03278 22.1881 2.5
    endloop
  endfacet
  facet normal 0 0 -1
    outer loop
      vertex -6.28647 8.38168 2.5
      vertex -6.12968 21.8899 2.5
      vertex -6.12968 8.1101 2.5
    endloop
  endfacet
  facet normal 0 0 -1
    outer loop
      vertex -6.28647 8.38168 2.5
      vertex -6.28647 21.6183 2.5
      vertex -6.12968 21.8899 2.5
    endloop
  endfacet
  facet normal 0 0 -1
    outer loop
      vertex -6.4963 8.61472 2.5
      vertex -6.28647 21.6183 2.5
      vertex -6.28647 8.38168 2.5
    endloop
  endfacet
  facet normal 0 0 -1
    outer loop
      vertex -6.4963 8.61472 2.5
      vertex -6.4963 21.3853 2.5
      vertex -6.28647 21.6183 2.5
    endloop
  endfacet
  facet normal 0 0 -1
    outer loop
      vertex -6.75 8.79904 2.5
      vertex -6.4963 21.3853 2.5
      vertex -6.4963 8.61472 2.5
    endloop
  endfacet
  facet normal 0 0 -1
    outer loop
      vertex -6.75 8.79904 2.5
      vertex -6.75 21.201 2.5
      vertex -6.4963 21.3853 2.5
    endloop
  endfacet
  facet normal 0 0 -1
    outer loop
      vertex -7.03647 8.92658 2.5
      vertex -6.75 21.201 2.5
      vertex -6.75 8.79904 2.5
    endloop
  endfacet
  facet normal 0 0 -1
    outer loop
      vertex -7.03647 8.92658 2.5
      vertex -7.03647 21.0734 2.5
      vertex -6.75 21.201 2.5
    endloop
  endfacet
  facet normal 0 0 -1
    outer loop
      vertex -7.34321 8.99178 2.5
      vertex -7.03647 21.0734 2.5
      vertex -7.03647 8.92658 2.5
    endloop
  endfacet
  facet normal 0 0 -1
    outer loop
      vertex -7.34321 8.99178 2.5
      vertex -7.34321 21.0082 2.5
      vertex -7.03647 21.0734 2.5
    endloop
  endfacet
  facet normal 0 0 -1
    outer loop
      vertex -7.65679 8.99178 2.5
      vertex -7.34321 21.0082 2.5
      vertex -7.34321 8.99178 2.5
    endloop
  endfacet
  facet normal 0 0 -1
    outer loop
      vertex -7.65679 8.99178 2.5
      vertex -7.65679 21.0082 2.5
      vertex -7.34321 21.0082 2.5
    endloop
  endfacet
  facet normal 0 0 -1
    outer loop
      vertex -7.96352 8.92658 2.5
      vertex -7.65679 21.0082 2.5
      vertex -7.65679 8.99178 2.5
    endloop
  endfacet
  facet normal 0 0 -1
    outer loop
      vertex -7.96352 8.92658 2.5
      vertex -7.96352 21.0734 2.5
      vertex -7.65679 21.0082 2.5
    endloop
  endfacet
  facet normal 0 0 -1
    outer loop
      vertex -8.25 8.79904 2.5
      vertex -7.96352 21.0734 2.5
      vertex -7.96352 8.92658 2.5
    endloop
  endfacet
  facet normal 0 0 -1
    outer loop
      vertex -8.25 8.79904 2.5
      vertex -8.25 21.201 2.5
      vertex -7.96352 21.0734 2.5
    endloop
  endfacet
  facet normal 0 0 -1
    outer loop
      vertex -8.5037 8.61472 2.5
      vertex -8.25 21.201 2.5
      vertex -8.25 8.79904 2.5
    endloop
  endfacet
  facet normal 0 0 -1
    outer loop
      vertex -8.5037 8.61472 2.5
      vertex -8.5037 21.3853 2.5
      vertex -8.25 21.201 2.5
    endloop
  endfacet
  facet normal 0 0 -1
    outer loop
      vertex -8.71352 8.38168 2.5
      vertex -8.5037 21.3853 2.5
      vertex -8.5037 8.61472 2.5
    endloop
  endfacet
  facet normal 0 0 -1
    outer loop
      vertex -8.71352 8.38168 2.5
      vertex -8.71352 21.6183 2.5
      vertex -8.5037 21.3853 2.5
    endloop
  endfacet
  facet normal 0 0 -1
    outer loop
      vertex -8.87032 8.1101 2.5
      vertex -8.71352 21.6183 2.5
      vertex -8.71352 8.38168 2.5
    endloop
  endfacet
  facet normal 0 0 -1
    outer loop
      vertex -8.87032 8.1101 2.5
      vertex -8.87032 21.8899 2.5
      vertex -8.71352 21.6183 2.5
    endloop
  endfacet
  facet normal 0 0 -1
    outer loop
      vertex -15 0 2.5
      vertex -8.87032 8.1101 2.5
      vertex -8.96722 7.81187 2.5
    endloop
  endfacet
  facet normal -0 0 -1
    outer loop
      vertex -8.87032 8.1101 2.5
      vertex -15 0 2.5
      vertex -8.87032 21.8899 2.5
    endloop
  endfacet
  facet normal 0 0 -1
    outer loop
      vertex -15 0 2.5
      vertex -8.96722 7.81187 2.5
      vertex -9 7.5 2.5
    endloop
  endfacet
  facet normal 0 0 -1
    outer loop
      vertex -15 30 2.5
      vertex -8.87032 21.8899 2.5
      vertex -15 0 2.5
    endloop
  endfacet
  facet normal 0 0 -1
    outer loop
      vertex -6.03278 7.81187 2.5
      vertex 10 0 2.5
      vertex -6 7.5 2.5
    endloop
  endfacet
  facet normal 0 0 -1
    outer loop
      vertex 10 0 2.5
      vertex -6.03278 7.18813 2.5
      vertex -6 7.5 2.5
    endloop
  endfacet
  facet normal 0 0 -1
    outer loop
      vertex 10 0 2.5
      vertex -6.12968 6.88989 2.5
      vertex -6.03278 7.18813 2.5
    endloop
  endfacet
  facet normal 0 0 -1
    outer loop
      vertex 10 0 2.5
      vertex -6.28647 6.61832 2.5
      vertex -6.12968 6.88989 2.5
    endloop
  endfacet
  facet normal 0 0 -1
    outer loop
      vertex 10 0 2.5
      vertex -6.4963 6.38528 2.5
      vertex -6.28647 6.61832 2.5
    endloop
  endfacet
  facet normal 0 0 -1
    outer loop
      vertex 10 0 2.5
      vertex -6.75 6.20096 2.5
      vertex -6.4963 6.38528 2.5
    endloop
  endfacet
  facet normal 0 0 -1
    outer loop
      vertex 10 0 2.5
      vertex -7.03647 6.07341 2.5
      vertex -6.75 6.20096 2.5
    endloop
  endfacet
  facet normal 0 0 -1
    outer loop
      vertex -15 0 2.5
      vertex -7.03647 6.07341 2.5
      vertex 10 0 2.5
    endloop
  endfacet
  facet normal 0 0 -1
    outer loop
      vertex -7.03647 6.07341 2.5
      vertex -15 0 2.5
      vertex -7.34321 6.00822 2.5
    endloop
  endfacet
  facet normal -0 0 -1
    outer loop
      vertex -7.34321 6.00822 2.5
      vertex -15 0 2.5
      vertex -7.65679 6.00822 2.5
    endloop
  endfacet
  facet normal 0 0 -1
    outer loop
      vertex -8.87032 21.8899 2.5
      vertex -15 30 2.5
      vertex -8.96722 22.1881 2.5
    endloop
  endfacet
  facet normal -0 0 -1
    outer loop
      vertex -8.96722 7.18813 2.5
      vertex -15 0 2.5
      vertex -9 7.5 2.5
    endloop
  endfacet
  facet normal -0 0 -1
    outer loop
      vertex -8.87032 6.88989 2.5
      vertex -15 0 2.5
      vertex -8.96722 7.18813 2.5
    endloop
  endfacet
  facet normal -0 0 -1
    outer loop
      vertex -8.71352 6.61832 2.5
      vertex -15 0 2.5
      vertex -8.87032 6.88989 2.5
    endloop
  endfacet
  facet normal -0 0 -1
    outer loop
      vertex -8.5037 6.38528 2.5
      vertex -15 0 2.5
      vertex -8.71352 6.61832 2.5
    endloop
  endfacet
  facet normal -0 0 -1
    outer loop
      vertex -8.25 6.20096 2.5
      vertex -15 0 2.5
      vertex -8.5037 6.38528 2.5
    endloop
  endfacet
  facet normal -0 0 -1
    outer loop
      vertex -7.96352 6.07341 2.5
      vertex -15 0 2.5
      vertex -8.25 6.20096 2.5
    endloop
  endfacet
  facet normal -0 0 -1
    outer loop
      vertex -7.65679 6.00822 2.5
      vertex -15 0 2.5
      vertex -7.96352 6.07341 2.5
    endloop
  endfacet
  facet normal 0 0 -1
    outer loop
      vertex -6.12968 8.1101 2.5
      vertex 10 0 2.5
      vertex -6.03278 7.81187 2.5
    endloop
  endfacet
  facet normal 0 0 -1
    outer loop
      vertex -6.03278 22.8119 2.5
      vertex 10 30 2.5
      vertex -6 22.5 2.5
    endloop
  endfacet
  facet normal 0 0 -1
    outer loop
      vertex -6.12968 23.1101 2.5
      vertex 10 30 2.5
      vertex -6.03278 22.8119 2.5
    endloop
  endfacet
  facet normal 0 0 -1
    outer loop
      vertex -6.28647 23.3817 2.5
      vertex 10 30 2.5
      vertex -6.12968 23.1101 2.5
    endloop
  endfacet
  facet normal 0 0 -1
    outer loop
      vertex -6.4963 23.6147 2.5
      vertex 10 30 2.5
      vertex -6.28647 23.3817 2.5
    endloop
  endfacet
  facet normal 0 0 -1
    outer loop
      vertex -6.75 23.799 2.5
      vertex 10 30 2.5
      vertex -6.4963 23.6147 2.5
    endloop
  endfacet
  facet normal 0 0 -1
    outer loop
      vertex -7.03647 23.9266 2.5
      vertex 10 30 2.5
      vertex -6.75 23.799 2.5
    endloop
  endfacet
  facet normal 0 0 -1
    outer loop
      vertex -15 30 2.5
      vertex -7.03647 23.9266 2.5
      vertex -7.34321 23.9918 2.5
    endloop
  endfacet
  facet normal 0 0 -1
    outer loop
      vertex -15 30 2.5
      vertex -7.34321 23.9918 2.5
      vertex -7.65679 23.9918 2.5
    endloop
  endfacet
  facet normal 0 0 -1
    outer loop
      vertex -15 30 2.5
      vertex -7.65679 23.9918 2.5
      vertex -7.96352 23.9266 2.5
    endloop
  endfacet
  facet normal 0 0 -1
    outer loop
      vertex -8.96722 22.1881 2.5
      vertex -15 30 2.5
      vertex -9 22.5 2.5
    endloop
  endfacet
  facet normal 0 0 -1
    outer loop
      vertex -7.03647 23.9266 2.5
      vertex -15 30 2.5
      vertex 10 30 2.5
    endloop
  endfacet
  facet normal 0 0 -1
    outer loop
      vertex -8.25 23.799 2.5
      vertex -15 30 2.5
      vertex -7.96352 23.9266 2.5
    endloop
  endfacet
  facet normal 0 0 -1
    outer loop
      vertex -8.5037 23.6147 2.5
      vertex -15 30 2.5
      vertex -8.25 23.799 2.5
    endloop
  endfacet
  facet normal 0 0 -1
    outer loop
      vertex -8.71352 23.3817 2.5
      vertex -15 30 2.5
      vertex -8.5037 23.6147 2.5
    endloop
  endfacet
  facet normal 0 0 -1
    outer loop
      vertex -8.87032 23.1101 2.5
      vertex -15 30 2.5
      vertex -8.71352 23.3817 2.5
    endloop
  endfacet
  facet normal 0 0 -1
    outer loop
      vertex -8.96722 22.8119 2.5
      vertex -15 30 2.5
      vertex -8.87032 23.1101 2.5
    endloop
  endfacet
  facet normal 0 0 -1
    outer loop
      vertex -9 22.5 2.5
      vertex -15 30 2.5
      vertex -8.96722 22.8119 2.5
    endloop
  endfacet
  facet normal 0 -1 0
    outer loop
      vertex -15 0 7.5
      vertex -15 0 2.5
      vertex 0 0 7.5
    endloop
  endfacet
  facet normal 0 -1 0
    outer loop
      vertex 0 0 7.5
      vertex 10 0 52.95
      vertex 0 0 52.95
    endloop
  endfacet
  facet normal 0 -1 0
    outer loop
      vertex 0 0 7.5
      vertex 10 0 2.5
      vertex 10 0 52.95
    endloop
  endfacet
  facet normal 0 -1 0
    outer loop
      vertex 10 0 2.5
      vertex 0 0 7.5
      vertex -15 0 2.5
    endloop
  endfacet
  facet normal -0 0.10453 0.994522
    outer loop
      vertex 0 15 26.3
      vertex 10 14.1268 26.3918
      vertex 10 15 26.3
    endloop
  endfacet
  facet normal 0 0.10453 0.994522
    outer loop
      vertex 10 14.1268 26.3918
      vertex 0 15 26.3
      vertex 0 14.1268 26.3918
    endloop
  endfacet
  facet normal 0 -0.669131 0.743145
    outer loop
      vertex 0 18.1212 27.6897
      vertex 10 17.4687 27.1021
      vertex 10 18.1212 27.6897
    endloop
  endfacet
  facet normal 0 -0.669131 0.743145
    outer loop
      vertex 10 17.4687 27.1021
      vertex 0 18.1212 27.6897
      vertex 0 17.4687 27.1021
    endloop
  endfacet
  facet normal 0 -1 0
    outer loop
      vertex 0 19.177 30.061
      vertex 10 19.177 30.939
      vertex 0 19.177 30.939
    endloop
  endfacet
  facet normal 0 -1 -0
    outer loop
      vertex 10 19.177 30.939
      vertex 0 19.177 30.061
      vertex 10 19.177 30.061
    endloop
  endfacet
  facet normal 0 -0.809018 -0.587784
    outer loop
      vertex 0 18.6373 32.6
      vertex 10 18.1212 33.3103
      vertex 0 18.1212 33.3103
    endloop
  endfacet
  facet normal 0 -0.809018 -0.587784
    outer loop
      vertex 10 18.1212 33.3103
      vertex 0 18.6373 32.6
      vertex 10 18.6373 32.6
    endloop
  endfacet
  facet normal 0 -0.309016 -0.951057
    outer loop
      vertex 0 15.8732 34.6082
      vertex 10 16.7083 34.3369
      vertex 10 15.8732 34.6082
    endloop
  endfacet
  facet normal -0 -0.309016 -0.951057
    outer loop
      vertex 10 16.7083 34.3369
      vertex 0 15.8732 34.6082
      vertex 0 16.7083 34.3369
    endloop
  endfacet
  facet normal 0 -0.669131 -0.743145
    outer loop
      vertex 0 17.4687 33.8979
      vertex 10 18.1212 33.3103
      vertex 10 17.4687 33.8979
    endloop
  endfacet
  facet normal -0 -0.669131 -0.743145
    outer loop
      vertex 10 18.1212 33.3103
      vertex 0 17.4687 33.8979
      vertex 0 18.1212 33.3103
    endloop
  endfacet
  facet normal 0 0.913546 0.406736
    outer loop
      vertex 10 11.3627 28.4
      vertex 0 11.0056 29.2021
      vertex 10 11.0056 29.2021
    endloop
  endfacet
  facet normal 0 0.913546 0.406736
    outer loop
      vertex 0 11.0056 29.2021
      vertex 10 11.3627 28.4
      vertex 0 11.3627 28.4
    endloop
  endfacet
  facet normal 0 -0.309016 0.951057
    outer loop
      vertex 0 16.7083 26.6631
      vertex 10 15.8732 26.3918
      vertex 10 16.7083 26.6631
    endloop
  endfacet
  facet normal 0 -0.309016 0.951057
    outer loop
      vertex 10 15.8732 26.3918
      vertex 0 16.7083 26.6631
      vertex 0 15.8732 26.3918
    endloop
  endfacet
  facet normal 0 -0.5 0.866026
    outer loop
      vertex 0 17.4687 27.1021
      vertex 10 16.7083 26.6631
      vertex 10 17.4687 27.1021
    endloop
  endfacet
  facet normal 0 -0.5 0.866026
    outer loop
      vertex 10 16.7083 26.6631
      vertex 0 17.4687 27.1021
      vertex 0 16.7083 26.6631
    endloop
  endfacet
  facet normal 0 -0.978148 -0.207909
    outer loop
      vertex 0 19.177 30.939
      vertex 10 18.9944 31.7979
      vertex 0 18.9944 31.7979
    endloop
  endfacet
  facet normal 0 -0.978148 -0.207909
    outer loop
      vertex 10 18.9944 31.7979
      vertex 0 19.177 30.939
      vertex 10 19.177 30.939
    endloop
  endfacet
  facet normal 0 -0.913545 0.406737
    outer loop
      vertex 0 18.6373 28.4
      vertex 10 18.9944 29.2021
      vertex 0 18.9944 29.2021
    endloop
  endfacet
  facet normal 0 -0.913545 0.406737
    outer loop
      vertex 10 18.9944 29.2021
      vertex 0 18.6373 28.4
      vertex 10 18.6373 28.4
    endloop
  endfacet
  facet normal 0 0.10453 -0.994522
    outer loop
      vertex 0 14.1268 34.6082
      vertex 10 15 34.7
      vertex 10 14.1268 34.6082
    endloop
  endfacet
  facet normal 0 0.10453 -0.994522
    outer loop
      vertex 10 15 34.7
      vertex 0 14.1268 34.6082
      vertex 0 15 34.7
    endloop
  endfacet
  facet normal 0 -0.5 -0.866026
    outer loop
      vertex 0 16.7083 34.3369
      vertex 10 17.4687 33.8979
      vertex 10 16.7083 34.3369
    endloop
  endfacet
  facet normal -0 -0.5 -0.866026
    outer loop
      vertex 10 17.4687 33.8979
      vertex 0 16.7083 34.3369
      vertex 0 17.4687 33.8979
    endloop
  endfacet
  facet normal 0 -0.913545 -0.406738
    outer loop
      vertex 0 18.9944 31.7979
      vertex 10 18.6373 32.6
      vertex 0 18.6373 32.6
    endloop
  endfacet
  facet normal 0 -0.913545 -0.406738
    outer loop
      vertex 10 18.6373 32.6
      vertex 0 18.9944 31.7979
      vertex 10 18.9944 31.7979
    endloop
  endfacet
  facet normal 0 -0.10453 0.994522
    outer loop
      vertex 0 15.8732 26.3918
      vertex 10 15 26.3
      vertex 10 15.8732 26.3918
    endloop
  endfacet
  facet normal 0 -0.10453 0.994522
    outer loop
      vertex 10 15 26.3
      vertex 0 15.8732 26.3918
      vertex 0 15 26.3
    endloop
  endfacet
  facet normal -0 0.309016 0.951057
    outer loop
      vertex 0 14.1268 26.3918
      vertex 10 13.2917 26.6631
      vertex 10 14.1268 26.3918
    endloop
  endfacet
  facet normal 0 0.309016 0.951057
    outer loop
      vertex 10 13.2917 26.6631
      vertex 0 14.1268 26.3918
      vertex 0 13.2917 26.6631
    endloop
  endfacet
  facet normal -0 0.669131 0.743144
    outer loop
      vertex 0 12.5313 27.1021
      vertex 10 11.8788 27.6897
      vertex 10 12.5313 27.1021
    endloop
  endfacet
  facet normal 0 0.669131 0.743144
    outer loop
      vertex 10 11.8788 27.6897
      vertex 0 12.5313 27.1021
      vertex 0 11.8788 27.6897
    endloop
  endfacet
  facet normal 0 -0.809017 0.587785
    outer loop
      vertex 0 18.1212 27.6897
      vertex 10 18.6373 28.4
      vertex 0 18.6373 28.4
    endloop
  endfacet
  facet normal 0 -0.809017 0.587785
    outer loop
      vertex 10 18.6373 28.4
      vertex 0 18.1212 27.6897
      vertex 10 18.1212 27.6897
    endloop
  endfacet
  facet normal 0 -0.978148 0.20791
    outer loop
      vertex 0 18.9944 29.2021
      vertex 10 19.177 30.061
      vertex 0 19.177 30.061
    endloop
  endfacet
  facet normal 0 -0.978148 0.20791
    outer loop
      vertex 10 19.177 30.061
      vertex 0 18.9944 29.2021
      vertex 10 18.9944 29.2021
    endloop
  endfacet
  facet normal 0 -0.10453 -0.994522
    outer loop
      vertex 0 15 34.7
      vertex 10 15.8732 34.6082
      vertex 10 15 34.7
    endloop
  endfacet
  facet normal -0 -0.10453 -0.994522
    outer loop
      vertex 10 15.8732 34.6082
      vertex 0 15 34.7
      vertex 0 15.8732 34.6082
    endloop
  endfacet
  facet normal 0 0.309016 -0.951057
    outer loop
      vertex 0 13.2917 34.3369
      vertex 10 14.1268 34.6082
      vertex 10 13.2917 34.3369
    endloop
  endfacet
  facet normal 0 0.309016 -0.951057
    outer loop
      vertex 10 14.1268 34.6082
      vertex 0 13.2917 34.3369
      vertex 0 14.1268 34.6082
    endloop
  endfacet
  facet normal 0 0.669131 -0.743144
    outer loop
      vertex 0 11.8788 33.3103
      vertex 10 12.5313 33.8979
      vertex 10 11.8788 33.3103
    endloop
  endfacet
  facet normal 0 0.669131 -0.743144
    outer loop
      vertex 10 12.5313 33.8979
      vertex 0 11.8788 33.3103
      vertex 0 12.5313 33.8979
    endloop
  endfacet
  facet normal -0 0.499999 0.866026
    outer loop
      vertex 0 13.2917 26.6631
      vertex 10 12.5313 27.1021
      vertex 10 13.2917 26.6631
    endloop
  endfacet
  facet normal 0 0.499999 0.866026
    outer loop
      vertex 10 12.5313 27.1021
      vertex 0 13.2917 26.6631
      vertex 0 12.5313 27.1021
    endloop
  endfacet
  facet normal 0 0.809017 0.587785
    outer loop
      vertex 10 11.8788 27.6897
      vertex 0 11.3627 28.4
      vertex 10 11.3627 28.4
    endloop
  endfacet
  facet normal 0 0.809017 0.587785
    outer loop
      vertex 0 11.3627 28.4
      vertex 10 11.8788 27.6897
      vertex 0 11.8788 27.6897
    endloop
  endfacet
  facet normal 0 0.978148 0.207912
    outer loop
      vertex 10 11.0056 29.2021
      vertex 0 10.823 30.061
      vertex 10 10.823 30.061
    endloop
  endfacet
  facet normal 0 0.978148 0.207912
    outer loop
      vertex 0 10.823 30.061
      vertex 10 11.0056 29.2021
      vertex 0 11.0056 29.2021
    endloop
  endfacet
  facet normal 0 1 -0
    outer loop
      vertex 10 10.823 30.061
      vertex 0 10.823 30.939
      vertex 10 10.823 30.939
    endloop
  endfacet
  facet normal 0 1 0
    outer loop
      vertex 0 10.823 30.939
      vertex 10 10.823 30.061
      vertex 0 10.823 30.061
    endloop
  endfacet
  facet normal 0 0.499999 -0.866026
    outer loop
      vertex 0 12.5313 33.8979
      vertex 10 13.2917 34.3369
      vertex 10 12.5313 33.8979
    endloop
  endfacet
  facet normal 0 0.499999 -0.866026
    outer loop
      vertex 10 13.2917 34.3369
      vertex 0 12.5313 33.8979
      vertex 0 13.2917 34.3369
    endloop
  endfacet
  facet normal 0 0.809018 -0.587784
    outer loop
      vertex 10 11.3627 32.6
      vertex 0 11.8788 33.3103
      vertex 10 11.8788 33.3103
    endloop
  endfacet
  facet normal 0 0.809018 -0.587784
    outer loop
      vertex 0 11.8788 33.3103
      vertex 10 11.3627 32.6
      vertex 0 11.3627 32.6
    endloop
  endfacet
  facet normal 0 0.978148 -0.207911
    outer loop
      vertex 10 10.823 30.939
      vertex 0 11.0056 31.7979
      vertex 10 11.0056 31.7979
    endloop
  endfacet
  facet normal 0 0.978148 -0.207911
    outer loop
      vertex 0 11.0056 31.7979
      vertex 10 10.823 30.939
      vertex 0 10.823 30.939
    endloop
  endfacet
  facet normal 0 0.913545 -0.406737
    outer loop
      vertex 10 11.0056 31.7979
      vertex 0 11.3627 32.6
      vertex 10 11.3627 32.6
    endloop
  endfacet
  facet normal 0 0.913545 -0.406737
    outer loop
      vertex 0 11.3627 32.6
      vertex 10 11.0056 31.7979
      vertex 0 11.0056 31.7979
    endloop
  endfacet
  facet normal 0 -0.104528 -0.994522
    outer loop
      vertex 5 15 18.9
      vertex 10 15.8732 18.8082
      vertex 10 15 18.9
    endloop
  endfacet
  facet normal -0 -0.104528 -0.994522
    outer loop
      vertex 10 15.8732 18.8082
      vertex 5 15 18.9
      vertex 5 15.8732 18.8082
    endloop
  endfacet
  facet normal 0 -0.104529 0.994522
    outer loop
      vertex 5 15.8732 10.5918
      vertex 10 15 10.5
      vertex 10 15.8732 10.5918
    endloop
  endfacet
  facet normal 0 -0.104529 0.994522
    outer loop
      vertex 10 15 10.5
      vertex 5 15.8732 10.5918
      vertex 5 15 10.5
    endloop
  endfacet
  facet normal 0 -0.978148 -0.207909
    outer loop
      vertex 5 19.177 15.139
      vertex 10 18.9944 15.9979
      vertex 5 18.9944 15.9979
    endloop
  endfacet
  facet normal 0 -0.978148 -0.207909
    outer loop
      vertex 10 18.9944 15.9979
      vertex 5 19.177 15.139
      vertex 10 19.177 15.139
    endloop
  endfacet
  facet normal 0 -0.913545 0.406738
    outer loop
      vertex 5 18.6373 12.6
      vertex 10 18.9944 13.4021
      vertex 5 18.9944 13.4021
    endloop
  endfacet
  facet normal 0 -0.913545 0.406738
    outer loop
      vertex 10 18.9944 13.4021
      vertex 5 18.6373 12.6
      vertex 10 18.6373 12.6
    endloop
  endfacet
  facet normal 0 -0.309017 0.951057
    outer loop
      vertex 5 16.7083 10.8631
      vertex 10 15.8732 10.5918
      vertex 10 16.7083 10.8631
    endloop
  endfacet
  facet normal 0 -0.309017 0.951057
    outer loop
      vertex 10 15.8732 10.5918
      vertex 5 16.7083 10.8631
      vertex 5 15.8732 10.5918
    endloop
  endfacet
  facet normal 0 0.104528 -0.994522
    outer loop
      vertex 5 14.1268 18.8082
      vertex 10 15 18.9
      vertex 10 14.1268 18.8082
    endloop
  endfacet
  facet normal 0 0.104528 -0.994522
    outer loop
      vertex 10 15 18.9
      vertex 5 14.1268 18.8082
      vertex 5 15 18.9
    endloop
  endfacet
  facet normal 0 -0.669128 -0.743147
    outer loop
      vertex 5 17.4687 18.0979
      vertex 10 18.1212 17.5103
      vertex 10 17.4687 18.0979
    endloop
  endfacet
  facet normal -0 -0.669128 -0.743147
    outer loop
      vertex 10 18.1212 17.5103
      vertex 5 17.4687 18.0979
      vertex 5 18.1212 17.5103
    endloop
  endfacet
  facet normal 0 -0.309018 -0.951056
    outer loop
      vertex 5 15.8732 18.8082
      vertex 10 16.7083 18.5369
      vertex 10 15.8732 18.8082
    endloop
  endfacet
  facet normal -0 -0.309018 -0.951056
    outer loop
      vertex 10 16.7083 18.5369
      vertex 5 15.8732 18.8082
      vertex 5 16.7083 18.5369
    endloop
  endfacet
  facet normal 0 -0.500001 -0.866025
    outer loop
      vertex 5 16.7083 18.5369
      vertex 10 17.4687 18.0979
      vertex 10 16.7083 18.5369
    endloop
  endfacet
  facet normal -0 -0.500001 -0.866025
    outer loop
      vertex 10 17.4687 18.0979
      vertex 5 16.7083 18.5369
      vertex 5 17.4687 18.0979
    endloop
  endfacet
  facet normal 0 -1 0
    outer loop
      vertex 5 19.177 14.261
      vertex 10 19.177 15.139
      vertex 5 19.177 15.139
    endloop
  endfacet
  facet normal 0 -1 -0
    outer loop
      vertex 10 19.177 15.139
      vertex 5 19.177 14.261
      vertex 10 19.177 14.261
    endloop
  endfacet
  facet normal 0 -0.5 0.866025
    outer loop
      vertex 5 17.4687 11.3021
      vertex 10 16.7083 10.8631
      vertex 10 17.4687 11.3021
    endloop
  endfacet
  facet normal 0 -0.5 0.866025
    outer loop
      vertex 10 16.7083 10.8631
      vertex 5 17.4687 11.3021
      vertex 5 16.7083 10.8631
    endloop
  endfacet
  facet normal 0 -0.66913 0.743145
    outer loop
      vertex 5 18.1212 11.8897
      vertex 10 17.4687 11.3021
      vertex 10 18.1212 11.8897
    endloop
  endfacet
  facet normal 0 -0.66913 0.743145
    outer loop
      vertex 10 17.4687 11.3021
      vertex 5 18.1212 11.8897
      vertex 5 17.4687 11.3021
    endloop
  endfacet
  facet normal -0 0.669131 0.743145
    outer loop
      vertex 5 12.5313 11.3021
      vertex 10 11.8788 11.8897
      vertex 10 12.5313 11.3021
    endloop
  endfacet
  facet normal 0 0.669131 0.743145
    outer loop
      vertex 10 11.8788 11.8897
      vertex 5 12.5313 11.3021
      vertex 5 11.8788 11.8897
    endloop
  endfacet
  facet normal -0 0.104529 0.994522
    outer loop
      vertex 5 15 10.5
      vertex 10 14.1268 10.5918
      vertex 10 15 10.5
    endloop
  endfacet
  facet normal 0 0.104529 0.994522
    outer loop
      vertex 10 14.1268 10.5918
      vertex 5 15 10.5
      vertex 5 14.1268 10.5918
    endloop
  endfacet
  facet normal 0 -0.809018 -0.587784
    outer loop
      vertex 5 18.6373 16.8
      vertex 10 18.1212 17.5103
      vertex 5 18.1212 17.5103
    endloop
  endfacet
  facet normal 0 -0.809018 -0.587784
    outer loop
      vertex 10 18.1212 17.5103
      vertex 5 18.6373 16.8
      vertex 10 18.6373 16.8
    endloop
  endfacet
  facet normal 0 -0.913545 -0.406738
    outer loop
      vertex 5 18.9944 15.9979
      vertex 10 18.6373 16.8
      vertex 5 18.6373 16.8
    endloop
  endfacet
  facet normal 0 -0.913545 -0.406738
    outer loop
      vertex 10 18.6373 16.8
      vertex 5 18.9944 15.9979
      vertex 10 18.9944 15.9979
    endloop
  endfacet
  facet normal 0 -0.978148 0.207909
    outer loop
      vertex 5 18.9944 13.4021
      vertex 10 19.177 14.261
      vertex 5 19.177 14.261
    endloop
  endfacet
  facet normal 0 -0.978148 0.207909
    outer loop
      vertex 10 19.177 14.261
      vertex 5 18.9944 13.4021
      vertex 10 18.9944 13.4021
    endloop
  endfacet
  facet normal 0 -0.809017 0.587785
    outer loop
      vertex 5 18.1212 11.8897
      vertex 10 18.6373 12.6
      vertex 5 18.6373 12.6
    endloop
  endfacet
  facet normal 0 -0.809017 0.587785
    outer loop
      vertex 10 18.6373 12.6
      vertex 5 18.1212 11.8897
      vertex 10 18.1212 11.8897
    endloop
  endfacet
  facet normal -0 0.499999 0.866026
    outer loop
      vertex 5 13.2917 10.8631
      vertex 10 12.5313 11.3021
      vertex 10 13.2917 10.8631
    endloop
  endfacet
  facet normal 0 0.499999 0.866026
    outer loop
      vertex 10 12.5313 11.3021
      vertex 5 13.2917 10.8631
      vertex 5 12.5313 11.3021
    endloop
  endfacet
  facet normal 0 1 -0
    outer loop
      vertex 10 10.823 14.261
      vertex 5 10.823 15.139
      vertex 10 10.823 15.139
    endloop
  endfacet
  facet normal 0 1 0
    outer loop
      vertex 5 10.823 15.139
      vertex 10 10.823 14.261
      vertex 5 10.823 14.261
    endloop
  endfacet
  facet normal 0 0.978148 -0.207911
    outer loop
      vertex 10 10.823 15.139
      vertex 5 11.0056 15.9979
      vertex 10 11.0056 15.9979
    endloop
  endfacet
  facet normal 0 0.978148 -0.207911
    outer loop
      vertex 5 11.0056 15.9979
      vertex 10 10.823 15.139
      vertex 5 10.823 15.139
    endloop
  endfacet
  facet normal 0 0.913545 -0.406737
    outer loop
      vertex 10 11.0056 15.9979
      vertex 5 11.3627 16.8
      vertex 10 11.3627 16.8
    endloop
  endfacet
  facet normal 0 0.913545 -0.406737
    outer loop
      vertex 5 11.3627 16.8
      vertex 10 11.0056 15.9979
      vertex 5 11.0056 15.9979
    endloop
  endfacet
  facet normal 0 0.809018 -0.587784
    outer loop
      vertex 10 11.3627 16.8
      vertex 5 11.8788 17.5103
      vertex 10 11.8788 17.5103
    endloop
  endfacet
  facet normal 0 0.809018 -0.587784
    outer loop
      vertex 5 11.8788 17.5103
      vertex 10 11.3627 16.8
      vertex 5 11.3627 16.8
    endloop
  endfacet
  facet normal 0 0.5 -0.866025
    outer loop
      vertex 5 12.5313 18.0979
      vertex 10 13.2917 18.5369
      vertex 10 12.5313 18.0979
    endloop
  endfacet
  facet normal 0 0.5 -0.866025
    outer loop
      vertex 10 13.2917 18.5369
      vertex 5 12.5313 18.0979
      vertex 5 13.2917 18.5369
    endloop
  endfacet
  facet normal 0 0.309018 -0.951056
    outer loop
      vertex 5 13.2917 18.5369
      vertex 10 14.1268 18.8082
      vertex 10 13.2917 18.5369
    endloop
  endfacet
  facet normal 0 0.309018 -0.951056
    outer loop
      vertex 10 14.1268 18.8082
      vertex 5 13.2917 18.5369
      vertex 5 14.1268 18.8082
    endloop
  endfacet
  facet normal -0 0.309017 0.951056
    outer loop
      vertex 5 14.1268 10.5918
      vertex 10 13.2917 10.8631
      vertex 10 14.1268 10.5918
    endloop
  endfacet
  facet normal 0 0.309017 0.951056
    outer loop
      vertex 10 13.2917 10.8631
      vertex 5 14.1268 10.5918
      vertex 5 13.2917 10.8631
    endloop
  endfacet
  facet normal 0 0.978148 0.207911
    outer loop
      vertex 10 11.0056 13.4021
      vertex 5 10.823 14.261
      vertex 10 10.823 14.261
    endloop
  endfacet
  facet normal 0 0.978148 0.207911
    outer loop
      vertex 5 10.823 14.261
      vertex 10 11.0056 13.4021
      vertex 5 11.0056 13.4021
    endloop
  endfacet
  facet normal 0 0.669129 -0.743146
    outer loop
      vertex 5 11.8788 17.5103
      vertex 10 12.5313 18.0979
      vertex 10 11.8788 17.5103
    endloop
  endfacet
  facet normal 0 0.669129 -0.743146
    outer loop
      vertex 10 12.5313 18.0979
      vertex 5 11.8788 17.5103
      vertex 5 12.5313 18.0979
    endloop
  endfacet
  facet normal 0 0.809017 0.587785
    outer loop
      vertex 10 11.8788 11.8897
      vertex 5 11.3627 12.6
      vertex 10 11.3627 12.6
    endloop
  endfacet
  facet normal 0 0.809017 0.587785
    outer loop
      vertex 5 11.3627 12.6
      vertex 10 11.8788 11.8897
      vertex 5 11.8788 11.8897
    endloop
  endfacet
  facet normal 1 0 0
    outer loop
      vertex 5 18.9944 15.9979
      vertex 5 19.177 14.261
      vertex 5 19.177 15.139
    endloop
  endfacet
  facet normal 1 0 0
    outer loop
      vertex 5 18.9944 15.9979
      vertex 5 18.9944 13.4021
      vertex 5 19.177 14.261
    endloop
  endfacet
  facet normal 1 0 0
    outer loop
      vertex 5 18.6373 16.8
      vertex 5 18.9944 13.4021
      vertex 5 18.9944 15.9979
    endloop
  endfacet
  facet normal 1 0 0
    outer loop
      vertex 5 18.6373 16.8
      vertex 5 18.6373 12.6
      vertex 5 18.9944 13.4021
    endloop
  endfacet
  facet normal 1 0 0
    outer loop
      vertex 5 18.1212 17.5103
      vertex 5 18.6373 12.6
      vertex 5 18.6373 16.8
    endloop
  endfacet
  facet normal 1 0 0
    outer loop
      vertex 5 18.1212 17.5103
      vertex 5 18.1212 11.8897
      vertex 5 18.6373 12.6
    endloop
  endfacet
  facet normal 1 0 0
    outer loop
      vertex 5 17.4687 18.0979
      vertex 5 18.1212 11.8897
      vertex 5 18.1212 17.5103
    endloop
  endfacet
  facet normal 1 0 0
    outer loop
      vertex 5 17.4687 18.0979
      vertex 5 17.4687 11.3021
      vertex 5 18.1212 11.8897
    endloop
  endfacet
  facet normal 1 0 0
    outer loop
      vertex 5 16.7083 18.5369
      vertex 5 17.4687 11.3021
      vertex 5 17.4687 18.0979
    endloop
  endfacet
  facet normal 1 0 0
    outer loop
      vertex 5 16.7083 18.5369
      vertex 5 16.7083 10.8631
      vertex 5 17.4687 11.3021
    endloop
  endfacet
  facet normal 1 0 0
    outer loop
      vertex 5 15.8732 18.8082
      vertex 5 16.7083 10.8631
      vertex 5 16.7083 18.5369
    endloop
  endfacet
  facet normal 1 0 0
    outer loop
      vertex 5 15.8732 18.8082
      vertex 5 15.8732 10.5918
      vertex 5 16.7083 10.8631
    endloop
  endfacet
  facet normal 1 0 0
    outer loop
      vertex 5 15 18.9
      vertex 5 15.8732 10.5918
      vertex 5 15.8732 18.8082
    endloop
  endfacet
  facet normal 1 0 0
    outer loop
      vertex 5 15 18.9
      vertex 5 15 10.5
      vertex 5 15.8732 10.5918
    endloop
  endfacet
  facet normal 1 -0 0
    outer loop
      vertex 5 14.1268 18.8082
      vertex 5 15 10.5
      vertex 5 15 18.9
    endloop
  endfacet
  facet normal 1 0 0
    outer loop
      vertex 5 14.1268 18.8082
      vertex 5 14.1268 10.5918
      vertex 5 15 10.5
    endloop
  endfacet
  facet normal 1 -0 0
    outer loop
      vertex 5 13.2917 18.5369
      vertex 5 14.1268 10.5918
      vertex 5 14.1268 18.8082
    endloop
  endfacet
  facet normal 1 0 0
    outer loop
      vertex 5 13.2917 18.5369
      vertex 5 13.2917 10.8631
      vertex 5 14.1268 10.5918
    endloop
  endfacet
  facet normal 1 -0 0
    outer loop
      vertex 5 12.5313 18.0979
      vertex 5 13.2917 10.8631
      vertex 5 13.2917 18.5369
    endloop
  endfacet
  facet normal 1 0 0
    outer loop
      vertex 5 12.5313 18.0979
      vertex 5 12.5313 11.3021
      vertex 5 13.2917 10.8631
    endloop
  endfacet
  facet normal 1 -0 0
    outer loop
      vertex 5 11.8788 17.5103
      vertex 5 12.5313 11.3021
      vertex 5 12.5313 18.0979
    endloop
  endfacet
  facet normal 1 0 0
    outer loop
      vertex 5 11.8788 17.5103
      vertex 5 11.8788 11.8897
      vertex 5 12.5313 11.3021
    endloop
  endfacet
  facet normal 1 -0 0
    outer loop
      vertex 5 11.3627 16.8
      vertex 5 11.8788 11.8897
      vertex 5 11.8788 17.5103
    endloop
  endfacet
  facet normal 1 0 0
    outer loop
      vertex 5 11.3627 16.8
      vertex 5 11.3627 12.6
      vertex 5 11.8788 11.8897
    endloop
  endfacet
  facet normal 1 -0 0
    outer loop
      vertex 5 11.0056 15.9979
      vertex 5 11.3627 12.6
      vertex 5 11.3627 16.8
    endloop
  endfacet
  facet normal 1 0 0
    outer loop
      vertex 5 11.0056 15.9979
      vertex 5 11.0056 13.4021
      vertex 5 11.3627 12.6
    endloop
  endfacet
  facet normal 1 -0 0
    outer loop
      vertex 5 10.823 15.139
      vertex 5 11.0056 13.4021
      vertex 5 11.0056 15.9979
    endloop
  endfacet
  facet normal 1 0 0
    outer loop
      vertex 5 11.0056 13.4021
      vertex 5 10.823 15.139
      vertex 5 10.823 14.261
    endloop
  endfacet
  facet normal 0 0.913545 0.406737
    outer loop
      vertex 10 11.3627 12.6
      vertex 5 11.0056 13.4021
      vertex 10 11.0056 13.4021
    endloop
  endfacet
  facet normal 0 0.913545 0.406737
    outer loop
      vertex 5 11.0056 13.4021
      vertex 10 11.3627 12.6
      vertex 5 11.3627 12.6
    endloop
  endfacet
  facet normal 0 -0.669131 0.743144
    outer loop
      vertex 0 18.8644 49.4705
      vertex 10 18.0565 48.7431
      vertex 10 18.8644 49.4705
    endloop
  endfacet
  facet normal 0 -0.669131 0.743144
    outer loop
      vertex 10 18.0565 48.7431
      vertex 0 18.8644 49.4705
      vertex 0 18.0565 48.7431
    endloop
  endfacet
  facet normal 0 -1 0
    outer loop
      vertex 0 20.1715 52.4065
      vertex 10 20.1715 52.95
      vertex 0 20.1715 52.95
    endloop
  endfacet
  facet normal 0 -1 -0
    outer loop
      vertex 10 20.1715 52.95
      vertex 0 20.1715 52.4065
      vertex 10 20.1715 52.4065
    endloop
  endfacet
  facet normal -0 0.104528 0.994522
    outer loop
      vertex 0 15 47.75
      vertex 10 13.9189 47.8636
      vertex 10 15 47.75
    endloop
  endfacet
  facet normal 0 0.104528 0.994522
    outer loop
      vertex 10 13.9189 47.8636
      vertex 0 15 47.75
      vertex 0 13.9189 47.8636
    endloop
  endfacet
  facet normal 0 0.913545 0.406738
    outer loop
      vertex 10 10.4967 50.35
      vertex 0 10.0545 51.3431
      vertex 10 10.0545 51.3431
    endloop
  endfacet
  facet normal 0 0.913545 0.406738
    outer loop
      vertex 0 10.0545 51.3431
      vertex 10 10.4967 50.35
      vertex 0 10.4967 50.35
    endloop
  endfacet
  facet normal 0 -0.309016 0.951057
    outer loop
      vertex 0 17.115 48.1996
      vertex 10 16.0811 47.8636
      vertex 10 17.115 48.1996
    endloop
  endfacet
  facet normal 0 -0.309016 0.951057
    outer loop
      vertex 10 16.0811 47.8636
      vertex 0 17.115 48.1996
      vertex 0 16.0811 47.8636
    endloop
  endfacet
  facet normal 0 -0.5 0.866025
    outer loop
      vertex 0 18.0565 48.7431
      vertex 10 17.115 48.1996
      vertex 10 18.0565 48.7431
    endloop
  endfacet
  facet normal 0 -0.5 0.866025
    outer loop
      vertex 10 17.115 48.1996
      vertex 0 18.0565 48.7431
      vertex 0 17.115 48.1996
    endloop
  endfacet
  facet normal 0 -0.913545 0.406738
    outer loop
      vertex 0 19.5033 50.35
      vertex 10 19.9455 51.3431
      vertex 0 19.9455 51.3431
    endloop
  endfacet
  facet normal 0 -0.913545 0.406738
    outer loop
      vertex 10 19.9455 51.3431
      vertex 0 19.5033 50.35
      vertex 10 19.5033 50.35
    endloop
  endfacet
  facet normal 0 -0.104528 0.994522
    outer loop
      vertex 0 16.0811 47.8636
      vertex 10 15 47.75
      vertex 10 16.0811 47.8636
    endloop
  endfacet
  facet normal 0 -0.104528 0.994522
    outer loop
      vertex 10 15 47.75
      vertex 0 16.0811 47.8636
      vertex 0 15 47.75
    endloop
  endfacet
  facet normal -0 0.669131 0.743144
    outer loop
      vertex 0 11.9435 48.7431
      vertex 10 11.1356 49.4705
      vertex 10 11.9435 48.7431
    endloop
  endfacet
  facet normal 0 0.669131 0.743144
    outer loop
      vertex 10 11.1356 49.4705
      vertex 0 11.9435 48.7431
      vertex 0 11.1356 49.4705
    endloop
  endfacet
  facet normal 0 -0.809018 0.587784
    outer loop
      vertex 0 18.8644 49.4705
      vertex 10 19.5033 50.35
      vertex 0 19.5033 50.35
    endloop
  endfacet
  facet normal 0 -0.809018 0.587784
    outer loop
      vertex 10 19.5033 50.35
      vertex 0 18.8644 49.4705
      vertex 10 18.8644 49.4705
    endloop
  endfacet
  facet normal 0 -0.978148 0.20791
    outer loop
      vertex 0 19.9455 51.3431
      vertex 10 20.1715 52.4065
      vertex 0 20.1715 52.4065
    endloop
  endfacet
  facet normal 0 -0.978148 0.20791
    outer loop
      vertex 10 20.1715 52.4065
      vertex 0 19.9455 51.3431
      vertex 10 19.9455 51.3431
    endloop
  endfacet
  facet normal -0 0.309016 0.951057
    outer loop
      vertex 0 13.9189 47.8636
      vertex 10 12.885 48.1996
      vertex 10 13.9189 47.8636
    endloop
  endfacet
  facet normal 0 0.309016 0.951057
    outer loop
      vertex 10 12.885 48.1996
      vertex 0 13.9189 47.8636
      vertex 0 12.885 48.1996
    endloop
  endfacet
  facet normal 0 0.809017 0.587786
    outer loop
      vertex 10 11.1356 49.4705
      vertex 0 10.4967 50.35
      vertex 10 10.4967 50.35
    endloop
  endfacet
  facet normal 0 0.809017 0.587786
    outer loop
      vertex 0 10.4967 50.35
      vertex 10 11.1356 49.4705
      vertex 0 11.1356 49.4705
    endloop
  endfacet
  facet normal 0 0.978148 0.207911
    outer loop
      vertex 10 10.0545 51.3431
      vertex 0 9.82849 52.4065
      vertex 10 9.82849 52.4065
    endloop
  endfacet
  facet normal 0 0.978148 0.207911
    outer loop
      vertex 0 9.82849 52.4065
      vertex 10 10.0545 51.3431
      vertex 0 10.0545 51.3431
    endloop
  endfacet
  facet normal 0 1 -0
    outer loop
      vertex 10 9.82849 52.4065
      vertex 0 9.82849 52.95
      vertex 10 9.82849 52.95
    endloop
  endfacet
  facet normal 0 1 0
    outer loop
      vertex 0 9.82849 52.95
      vertex 10 9.82849 52.4065
      vertex 0 9.82849 52.4065
    endloop
  endfacet
  facet normal -0 0.5 0.866025
    outer loop
      vertex 0 12.885 48.1996
      vertex 10 11.9435 48.7431
      vertex 10 12.885 48.1996
    endloop
  endfacet
  facet normal 0 0.5 0.866025
    outer loop
      vertex 10 11.9435 48.7431
      vertex 0 12.885 48.1996
      vertex 0 11.9435 48.7431
    endloop
  endfacet
  facet normal -1 0 0
    outer loop
      vertex -15 0 2.5
      vertex -15 30 7.5
      vertex -15 30 2.5
    endloop
  endfacet
  facet normal -1 -0 0
    outer loop
      vertex -15 30 7.5
      vertex -15 0 2.5
      vertex -15 0 7.5
    endloop
  endfacet
  facet normal 0 0 1
    outer loop
      vertex 0 30 7.5
      vertex -6.12968 21.8899 7.5
      vertex 0 0 7.5
    endloop
  endfacet
  facet normal 0 0 1
    outer loop
      vertex 0 0 7.5
      vertex -6.03278 7.81187 7.5
      vertex -6 7.5 7.5
    endloop
  endfacet
  facet normal -0 0 1
    outer loop
      vertex -6.12968 8.1101 7.5
      vertex 0 0 7.5
      vertex -6.12968 21.8899 7.5
    endloop
  endfacet
  facet normal 0 0 1
    outer loop
      vertex 0 0 7.5
      vertex -6.12968 8.1101 7.5
      vertex -6.03278 7.81187 7.5
    endloop
  endfacet
  facet normal -0 0 1
    outer loop
      vertex -6.28647 21.6183 7.5
      vertex -6.12968 8.1101 7.5
      vertex -6.12968 21.8899 7.5
    endloop
  endfacet
  facet normal 0 0 1
    outer loop
      vertex -6.28647 21.6183 7.5
      vertex -6.28647 8.38168 7.5
      vertex -6.12968 8.1101 7.5
    endloop
  endfacet
  facet normal -0 0 1
    outer loop
      vertex -6.4963 21.3853 7.5
      vertex -6.28647 8.38168 7.5
      vertex -6.28647 21.6183 7.5
    endloop
  endfacet
  facet normal 0 0 1
    outer loop
      vertex -6.4963 21.3853 7.5
      vertex -6.4963 8.61472 7.5
      vertex -6.28647 8.38168 7.5
    endloop
  endfacet
  facet normal -0 0 1
    outer loop
      vertex -6.75 21.201 7.5
      vertex -6.4963 8.61472 7.5
      vertex -6.4963 21.3853 7.5
    endloop
  endfacet
  facet normal 0 0 1
    outer loop
      vertex -6.75 21.201 7.5
      vertex -6.75 8.79904 7.5
      vertex -6.4963 8.61472 7.5
    endloop
  endfacet
  facet normal -0 0 1
    outer loop
      vertex -7.03647 21.0734 7.5
      vertex -6.75 8.79904 7.5
      vertex -6.75 21.201 7.5
    endloop
  endfacet
  facet normal 0 0 1
    outer loop
      vertex -7.03647 21.0734 7.5
      vertex -7.03647 8.92658 7.5
      vertex -6.75 8.79904 7.5
    endloop
  endfacet
  facet normal -0 0 1
    outer loop
      vertex -7.34321 21.0082 7.5
      vertex -7.03647 8.92658 7.5
      vertex -7.03647 21.0734 7.5
    endloop
  endfacet
  facet normal 0 0 1
    outer loop
      vertex -7.34321 21.0082 7.5
      vertex -7.34321 8.99178 7.5
      vertex -7.03647 8.92658 7.5
    endloop
  endfacet
  facet normal -0 0 1
    outer loop
      vertex -7.65679 21.0082 7.5
      vertex -7.34321 8.99178 7.5
      vertex -7.34321 21.0082 7.5
    endloop
  endfacet
  facet normal 0 0 1
    outer loop
      vertex -7.65679 21.0082 7.5
      vertex -7.65679 8.99178 7.5
      vertex -7.34321 8.99178 7.5
    endloop
  endfacet
  facet normal 0 0 1
    outer loop
      vertex -7.96352 21.0734 7.5
      vertex -7.65679 8.99178 7.5
      vertex -7.65679 21.0082 7.5
    endloop
  endfacet
  facet normal 0 0 1
    outer loop
      vertex -7.96352 21.0734 7.5
      vertex -7.96352 8.92658 7.5
      vertex -7.65679 8.99178 7.5
    endloop
  endfacet
  facet normal 0 0 1
    outer loop
      vertex -8.25 21.201 7.5
      vertex -7.96352 8.92658 7.5
      vertex -7.96352 21.0734 7.5
    endloop
  endfacet
  facet normal 0 0 1
    outer loop
      vertex -8.25 21.201 7.5
      vertex -8.25 8.79904 7.5
      vertex -7.96352 8.92658 7.5
    endloop
  endfacet
  facet normal 0 0 1
    outer loop
      vertex -8.5037 21.3853 7.5
      vertex -8.25 8.79904 7.5
      vertex -8.25 21.201 7.5
    endloop
  endfacet
  facet normal 0 0 1
    outer loop
      vertex -8.5037 21.3853 7.5
      vertex -8.5037 8.61472 7.5
      vertex -8.25 8.79904 7.5
    endloop
  endfacet
  facet normal 0 0 1
    outer loop
      vertex -8.71352 21.6183 7.5
      vertex -8.5037 8.61472 7.5
      vertex -8.5037 21.3853 7.5
    endloop
  endfacet
  facet normal 0 0 1
    outer loop
      vertex -8.71352 21.6183 7.5
      vertex -8.71352 8.38168 7.5
      vertex -8.5037 8.61472 7.5
    endloop
  endfacet
  facet normal 0 0 1
    outer loop
      vertex -8.87032 21.8899 7.5
      vertex -8.71352 8.38168 7.5
      vertex -8.71352 21.6183 7.5
    endloop
  endfacet
  facet normal 0 0 1
    outer loop
      vertex -8.87032 21.8899 7.5
      vertex -8.87032 8.1101 7.5
      vertex -8.71352 8.38168 7.5
    endloop
  endfacet
  facet normal 0 0 1
    outer loop
      vertex -15 30 7.5
      vertex -8.87032 21.8899 7.5
      vertex -8.96722 22.1881 7.5
    endloop
  endfacet
  facet normal 0 0 1
    outer loop
      vertex -8.87032 21.8899 7.5
      vertex -15 30 7.5
      vertex -8.87032 8.1101 7.5
    endloop
  endfacet
  facet normal 0 0 1
    outer loop
      vertex -15 30 7.5
      vertex -8.96722 22.1881 7.5
      vertex -9 22.5 7.5
    endloop
  endfacet
  facet normal 0 0 1
    outer loop
      vertex -15 0 7.5
      vertex -8.87032 8.1101 7.5
      vertex -15 30 7.5
    endloop
  endfacet
  facet normal 0 0 1
    outer loop
      vertex -6.03278 22.1881 7.5
      vertex 0 30 7.5
      vertex -6 22.5 7.5
    endloop
  endfacet
  facet normal 0 0 1
    outer loop
      vertex 0 30 7.5
      vertex -6.03278 22.8119 7.5
      vertex -6 22.5 7.5
    endloop
  endfacet
  facet normal 0 0 1
    outer loop
      vertex 0 30 7.5
      vertex -6.12968 23.1101 7.5
      vertex -6.03278 22.8119 7.5
    endloop
  endfacet
  facet normal 0 0 1
    outer loop
      vertex 0 30 7.5
      vertex -6.28647 23.3817 7.5
      vertex -6.12968 23.1101 7.5
    endloop
  endfacet
  facet normal 0 0 1
    outer loop
      vertex 0 30 7.5
      vertex -6.4963 23.6147 7.5
      vertex -6.28647 23.3817 7.5
    endloop
  endfacet
  facet normal 0 0 1
    outer loop
      vertex 0 30 7.5
      vertex -6.75 23.799 7.5
      vertex -6.4963 23.6147 7.5
    endloop
  endfacet
  facet normal 0 0 1
    outer loop
      vertex 0 30 7.5
      vertex -7.03647 23.9266 7.5
      vertex -6.75 23.799 7.5
    endloop
  endfacet
  facet normal 0 0 1
    outer loop
      vertex 0 30 7.5
      vertex -7.34321 23.9918 7.5
      vertex -7.03647 23.9266 7.5
    endloop
  endfacet
  facet normal 0 0 1
    outer loop
      vertex 0 30 7.5
      vertex -7.65679 23.9918 7.5
      vertex -7.34321 23.9918 7.5
    endloop
  endfacet
  facet normal -0 0 1
    outer loop
      vertex -15 30 7.5
      vertex -7.65679 23.9918 7.5
      vertex 0 30 7.5
    endloop
  endfacet
  facet normal 0 0 1
    outer loop
      vertex -7.65679 23.9918 7.5
      vertex -15 30 7.5
      vertex -7.96352 23.9266 7.5
    endloop
  endfacet
  facet normal 0 0 1
    outer loop
      vertex -7.96352 23.9266 7.5
      vertex -15 30 7.5
      vertex -8.25 23.799 7.5
    endloop
  endfacet
  facet normal 0 0 1
    outer loop
      vertex -8.87032 8.1101 7.5
      vertex -15 0 7.5
      vertex -8.96722 7.81187 7.5
    endloop
  endfacet
  facet normal 0 0 1
    outer loop
      vertex -8.96722 22.8119 7.5
      vertex -15 30 7.5
      vertex -9 22.5 7.5
    endloop
  endfacet
  facet normal 0 0 1
    outer loop
      vertex -8.87032 23.1101 7.5
      vertex -15 30 7.5
      vertex -8.96722 22.8119 7.5
    endloop
  endfacet
  facet normal 0 0 1
    outer loop
      vertex -8.71352 23.3817 7.5
      vertex -15 30 7.5
      vertex -8.87032 23.1101 7.5
    endloop
  endfacet
  facet normal 0 0 1
    outer loop
      vertex -8.5037 23.6147 7.5
      vertex -15 30 7.5
      vertex -8.71352 23.3817 7.5
    endloop
  endfacet
  facet normal 0 0 1
    outer loop
      vertex -8.25 23.799 7.5
      vertex -15 30 7.5
      vertex -8.5037 23.6147 7.5
    endloop
  endfacet
  facet normal 0 0 1
    outer loop
      vertex -6.12968 21.8899 7.5
      vertex 0 30 7.5
      vertex -6.03278 22.1881 7.5
    endloop
  endfacet
  facet normal -0 0 1
    outer loop
      vertex -6.03278 7.18813 7.5
      vertex 0 0 7.5
      vertex -6 7.5 7.5
    endloop
  endfacet
  facet normal -0 0 1
    outer loop
      vertex -6.12968 6.88989 7.5
      vertex 0 0 7.5
      vertex -6.03278 7.18813 7.5
    endloop
  endfacet
  facet normal -0 0 1
    outer loop
      vertex -6.28647 6.61832 7.5
      vertex 0 0 7.5
      vertex -6.12968 6.88989 7.5
    endloop
  endfacet
  facet normal -0 0 1
    outer loop
      vertex -6.4963 6.38528 7.5
      vertex 0 0 7.5
      vertex -6.28647 6.61832 7.5
    endloop
  endfacet
  facet normal -0 0 1
    outer loop
      vertex -6.75 6.20096 7.5
      vertex 0 0 7.5
      vertex -6.4963 6.38528 7.5
    endloop
  endfacet
  facet normal -0 0 1
    outer loop
      vertex -7.03647 6.07341 7.5
      vertex 0 0 7.5
      vertex -6.75 6.20096 7.5
    endloop
  endfacet
  facet normal -0 0 1
    outer loop
      vertex -7.34321 6.00822 7.5
      vertex 0 0 7.5
      vertex -7.03647 6.07341 7.5
    endloop
  endfacet
  facet normal -0 0 1
    outer loop
      vertex -7.65679 6.00822 7.5
      vertex 0 0 7.5
      vertex -7.34321 6.00822 7.5
    endloop
  endfacet
  facet normal 0 0 1
    outer loop
      vertex -15 0 7.5
      vertex -7.65679 6.00822 7.5
      vertex -7.96352 6.07341 7.5
    endloop
  endfacet
  facet normal 0 0 1
    outer loop
      vertex -15 0 7.5
      vertex -7.96352 6.07341 7.5
      vertex -8.25 6.20096 7.5
    endloop
  endfacet
  facet normal 0 0 1
    outer loop
      vertex -15 0 7.5
      vertex -8.25 6.20096 7.5
      vertex -8.5037 6.38528 7.5
    endloop
  endfacet
  facet normal 0 0 1
    outer loop
      vertex -8.96722 7.81187 7.5
      vertex -15 0 7.5
      vertex -9 7.5 7.5
    endloop
  endfacet
  facet normal 0 0 1
    outer loop
      vertex -7.65679 6.00822 7.5
      vertex -15 0 7.5
      vertex 0 0 7.5
    endloop
  endfacet
  facet normal 0 0 1
    outer loop
      vertex -8.71352 6.61832 7.5
      vertex -15 0 7.5
      vertex -8.5037 6.38528 7.5
    endloop
  endfacet
  facet normal 0 0 1
    outer loop
      vertex -8.87032 6.88989 7.5
      vertex -15 0 7.5
      vertex -8.71352 6.61832 7.5
    endloop
  endfacet
  facet normal 0 0 1
    outer loop
      vertex -8.96722 7.18813 7.5
      vertex -15 0 7.5
      vertex -8.87032 6.88989 7.5
    endloop
  endfacet
  facet normal 0 0 1
    outer loop
      vertex -9 7.5 7.5
      vertex -15 0 7.5
      vertex -8.96722 7.18813 7.5
    endloop
  endfacet
  facet normal -0.866026 -0.5 0
    outer loop
      vertex -6.12968 8.1101 2.5
      vertex -6.28647 8.38168 7.5
      vertex -6.28647 8.38168 2.5
    endloop
  endfacet
  facet normal -0.866026 -0.5 0
    outer loop
      vertex -6.28647 8.38168 7.5
      vertex -6.12968 8.1101 2.5
      vertex -6.12968 8.1101 7.5
    endloop
  endfacet
  facet normal 0.994522 -0.104529 0
    outer loop
      vertex -9 7.5 7.5
      vertex -8.96722 7.81187 2.5
      vertex -8.96722 7.81187 7.5
    endloop
  endfacet
  facet normal 0.994522 -0.104529 0
    outer loop
      vertex -8.96722 7.81187 2.5
      vertex -9 7.5 7.5
      vertex -9 7.5 2.5
    endloop
  endfacet
  facet normal 0.994522 0.104529 0
    outer loop
      vertex -8.96722 7.18813 7.5
      vertex -9 7.5 2.5
      vertex -9 7.5 7.5
    endloop
  endfacet
  facet normal 0.994522 0.104529 0
    outer loop
      vertex -9 7.5 2.5
      vertex -8.96722 7.18813 7.5
      vertex -8.96722 7.18813 2.5
    endloop
  endfacet
  facet normal 0 -1 0
    outer loop
      vertex -7.65679 8.99178 2.5
      vertex -7.34321 8.99178 7.5
      vertex -7.65679 8.99178 7.5
    endloop
  endfacet
  facet normal 0 -1 -0
    outer loop
      vertex -7.34321 8.99178 7.5
      vertex -7.65679 8.99178 2.5
      vertex -7.34321 8.99178 2.5
    endloop
  endfacet
  facet normal -0.743145 -0.669131 0
    outer loop
      vertex -6.28647 8.38168 2.5
      vertex -6.4963 8.61472 7.5
      vertex -6.4963 8.61472 2.5
    endloop
  endfacet
  facet normal -0.743145 -0.669131 0
    outer loop
      vertex -6.4963 8.61472 7.5
      vertex -6.28647 8.38168 2.5
      vertex -6.28647 8.38168 7.5
    endloop
  endfacet
  facet normal -0.207912 -0.978148 0
    outer loop
      vertex -7.34321 8.99178 2.5
      vertex -7.03647 8.92658 7.5
      vertex -7.34321 8.99178 7.5
    endloop
  endfacet
  facet normal -0.207912 -0.978148 -0
    outer loop
      vertex -7.03647 8.92658 7.5
      vertex -7.34321 8.99178 2.5
      vertex -7.03647 8.92658 2.5
    endloop
  endfacet
  facet normal 0.406735 -0.913546 0
    outer loop
      vertex -8.25 8.79904 2.5
      vertex -7.96352 8.92658 7.5
      vertex -8.25 8.79904 7.5
    endloop
  endfacet
  facet normal 0.406735 -0.913546 0
    outer loop
      vertex -7.96352 8.92658 7.5
      vertex -8.25 8.79904 2.5
      vertex -7.96352 8.92658 2.5
    endloop
  endfacet
  facet normal 0.951056 -0.309018 0
    outer loop
      vertex -8.96722 7.81187 7.5
      vertex -8.87032 8.1101 2.5
      vertex -8.87032 8.1101 7.5
    endloop
  endfacet
  facet normal 0.951056 -0.309018 0
    outer loop
      vertex -8.87032 8.1101 2.5
      vertex -8.96722 7.81187 7.5
      vertex -8.96722 7.81187 2.5
    endloop
  endfacet
  facet normal -0.994522 0.104526 0
    outer loop
      vertex -6.03278 7.18813 2.5
      vertex -6 7.5 7.5
      vertex -6 7.5 2.5
    endloop
  endfacet
  facet normal -0.994522 0.104526 0
    outer loop
      vertex -6 7.5 7.5
      vertex -6.03278 7.18813 2.5
      vertex -6.03278 7.18813 7.5
    endloop
  endfacet
  facet normal -0.207912 0.978148 0
    outer loop
      vertex -7.03647 6.07341 2.5
      vertex -7.34321 6.00822 7.5
      vertex -7.03647 6.07341 7.5
    endloop
  endfacet
  facet normal -0.207912 0.978148 0
    outer loop
      vertex -7.34321 6.00822 7.5
      vertex -7.03647 6.07341 2.5
      vertex -7.34321 6.00822 2.5
    endloop
  endfacet
  facet normal -0.951056 -0.309018 0
    outer loop
      vertex -6.03278 7.81187 2.5
      vertex -6.12968 8.1101 7.5
      vertex -6.12968 8.1101 2.5
    endloop
  endfacet
  facet normal -0.951056 -0.309018 0
    outer loop
      vertex -6.12968 8.1101 7.5
      vertex -6.03278 7.81187 2.5
      vertex -6.03278 7.81187 7.5
    endloop
  endfacet
  facet normal -0.587786 -0.809017 0
    outer loop
      vertex -6.75 8.79904 2.5
      vertex -6.4963 8.61472 7.5
      vertex -6.75 8.79904 7.5
    endloop
  endfacet
  facet normal -0.587786 -0.809017 -0
    outer loop
      vertex -6.4963 8.61472 7.5
      vertex -6.75 8.79904 2.5
      vertex -6.4963 8.61472 2.5
    endloop
  endfacet
  facet normal -0.406736 -0.913546 0
    outer loop
      vertex -7.03647 8.92658 2.5
      vertex -6.75 8.79904 7.5
      vertex -7.03647 8.92658 7.5
    endloop
  endfacet
  facet normal -0.406736 -0.913546 -0
    outer loop
      vertex -6.75 8.79904 7.5
      vertex -7.03647 8.92658 2.5
      vertex -6.75 8.79904 2.5
    endloop
  endfacet
  facet normal 0.866026 -0.5 0
    outer loop
      vertex -8.87032 8.1101 7.5
      vertex -8.71352 8.38168 2.5
      vertex -8.71352 8.38168 7.5
    endloop
  endfacet
  facet normal 0.866026 -0.5 0
    outer loop
      vertex -8.71352 8.38168 2.5
      vertex -8.87032 8.1101 7.5
      vertex -8.87032 8.1101 2.5
    endloop
  endfacet
  facet normal 0.587787 -0.809016 0
    outer loop
      vertex -8.5037 8.61472 2.5
      vertex -8.25 8.79904 7.5
      vertex -8.5037 8.61472 7.5
    endloop
  endfacet
  facet normal 0.587787 -0.809016 0
    outer loop
      vertex -8.25 8.79904 7.5
      vertex -8.5037 8.61472 2.5
      vertex -8.25 8.79904 2.5
    endloop
  endfacet
  facet normal 0.207912 -0.978148 0
    outer loop
      vertex -7.96352 8.92658 2.5
      vertex -7.65679 8.99178 7.5
      vertex -7.96352 8.92658 7.5
    endloop
  endfacet
  facet normal 0.207912 -0.978148 0
    outer loop
      vertex -7.65679 8.99178 7.5
      vertex -7.96352 8.92658 2.5
      vertex -7.65679 8.99178 2.5
    endloop
  endfacet
  facet normal 0.743145 -0.669131 0
    outer loop
      vertex -8.71352 8.38168 7.5
      vertex -8.5037 8.61472 2.5
      vertex -8.5037 8.61472 7.5
    endloop
  endfacet
  facet normal 0.743145 -0.669131 0
    outer loop
      vertex -8.5037 8.61472 2.5
      vertex -8.71352 8.38168 7.5
      vertex -8.71352 8.38168 2.5
    endloop
  endfacet
  facet normal -0.994522 -0.104526 0
    outer loop
      vertex -6 7.5 2.5
      vertex -6.03278 7.81187 7.5
      vertex -6.03278 7.81187 2.5
    endloop
  endfacet
  facet normal -0.994522 -0.104526 0
    outer loop
      vertex -6.03278 7.81187 7.5
      vertex -6 7.5 2.5
      vertex -6 7.5 7.5
    endloop
  endfacet
  facet normal -0.587786 0.809017 0
    outer loop
      vertex -6.4963 6.38528 2.5
      vertex -6.75 6.20096 7.5
      vertex -6.4963 6.38528 7.5
    endloop
  endfacet
  facet normal -0.587786 0.809017 0
    outer loop
      vertex -6.75 6.20096 7.5
      vertex -6.4963 6.38528 2.5
      vertex -6.75 6.20096 2.5
    endloop
  endfacet
  facet normal -0.951056 0.309018 0
    outer loop
      vertex -6.12968 6.88989 2.5
      vertex -6.03278 7.18813 7.5
      vertex -6.03278 7.18813 2.5
    endloop
  endfacet
  facet normal -0.951056 0.309018 0
    outer loop
      vertex -6.03278 7.18813 7.5
      vertex -6.12968 6.88989 2.5
      vertex -6.12968 6.88989 7.5
    endloop
  endfacet
  facet normal 0.207912 0.978148 -0
    outer loop
      vertex -7.65679 6.00822 2.5
      vertex -7.96352 6.07341 7.5
      vertex -7.65679 6.00822 7.5
    endloop
  endfacet
  facet normal 0.207912 0.978148 0
    outer loop
      vertex -7.96352 6.07341 7.5
      vertex -7.65679 6.00822 2.5
      vertex -7.96352 6.07341 2.5
    endloop
  endfacet
  facet normal 0.866026 0.5 0
    outer loop
      vertex -8.71352 6.61832 7.5
      vertex -8.87032 6.88989 2.5
      vertex -8.87032 6.88989 7.5
    endloop
  endfacet
  facet normal 0.866026 0.5 0
    outer loop
      vertex -8.87032 6.88989 2.5
      vertex -8.71352 6.61832 7.5
      vertex -8.71352 6.61832 2.5
    endloop
  endfacet
  facet normal 0.951056 0.309018 0
    outer loop
      vertex -8.87032 6.88989 7.5
      vertex -8.96722 7.18813 2.5
      vertex -8.96722 7.18813 7.5
    endloop
  endfacet
  facet normal 0.951056 0.309018 0
    outer loop
      vertex -8.96722 7.18813 2.5
      vertex -8.87032 6.88989 7.5
      vertex -8.87032 6.88989 2.5
    endloop
  endfacet
  facet normal -0.866026 0.5 0
    outer loop
      vertex -6.28647 6.61832 2.5
      vertex -6.12968 6.88989 7.5
      vertex -6.12968 6.88989 2.5
    endloop
  endfacet
  facet normal -0.866026 0.5 0
    outer loop
      vertex -6.12968 6.88989 7.5
      vertex -6.28647 6.61832 2.5
      vertex -6.28647 6.61832 7.5
    endloop
  endfacet
  facet normal 0.406735 0.913546 -0
    outer loop
      vertex -7.96352 6.07341 2.5
      vertex -8.25 6.20096 7.5
      vertex -7.96352 6.07341 7.5
    endloop
  endfacet
  facet normal 0.406735 0.913546 0
    outer loop
      vertex -8.25 6.20096 7.5
      vertex -7.96352 6.07341 2.5
      vertex -8.25 6.20096 2.5
    endloop
  endfacet
  facet normal 0 1 -0
    outer loop
      vertex -7.34321 6.00822 2.5
      vertex -7.65679 6.00822 7.5
      vertex -7.34321 6.00822 7.5
    endloop
  endfacet
  facet normal 0 1 0
    outer loop
      vertex -7.65679 6.00822 7.5
      vertex -7.34321 6.00822 2.5
      vertex -7.65679 6.00822 2.5
    endloop
  endfacet
  facet normal 0.743145 0.669131 0
    outer loop
      vertex -8.5037 6.38528 7.5
      vertex -8.71352 6.61832 2.5
      vertex -8.71352 6.61832 7.5
    endloop
  endfacet
  facet normal 0.743145 0.669131 0
    outer loop
      vertex -8.71352 6.61832 2.5
      vertex -8.5037 6.38528 7.5
      vertex -8.5037 6.38528 2.5
    endloop
  endfacet
  facet normal -0.406736 0.913546 0
    outer loop
      vertex -6.75 6.20096 2.5
      vertex -7.03647 6.07341 7.5
      vertex -6.75 6.20096 7.5
    endloop
  endfacet
  facet normal -0.406736 0.913546 0
    outer loop
      vertex -7.03647 6.07341 7.5
      vertex -6.75 6.20096 2.5
      vertex -7.03647 6.07341 2.5
    endloop
  endfacet
  facet normal -0.743145 0.669131 0
    outer loop
      vertex -6.4963 6.38528 2.5
      vertex -6.28647 6.61832 7.5
      vertex -6.28647 6.61832 2.5
    endloop
  endfacet
  facet normal -0.743145 0.669131 0
    outer loop
      vertex -6.28647 6.61832 7.5
      vertex -6.4963 6.38528 2.5
      vertex -6.4963 6.38528 7.5
    endloop
  endfacet
  facet normal 0.587787 0.809016 -0
    outer loop
      vertex -8.25 6.20096 2.5
      vertex -8.5037 6.38528 7.5
      vertex -8.25 6.20096 7.5
    endloop
  endfacet
  facet normal 0.587787 0.809016 0
    outer loop
      vertex -8.5037 6.38528 7.5
      vertex -8.25 6.20096 2.5
      vertex -8.5037 6.38528 2.5
    endloop
  endfacet
  facet normal -0.866026 -0.499998 0
    outer loop
      vertex -6.12968 23.1101 2.5
      vertex -6.28647 23.3817 7.5
      vertex -6.28647 23.3817 2.5
    endloop
  endfacet
  facet normal -0.866026 -0.499998 0
    outer loop
      vertex -6.28647 23.3817 7.5
      vertex -6.12968 23.1101 2.5
      vertex -6.12968 23.1101 7.5
    endloop
  endfacet
  facet normal 0.994522 -0.104529 0
    outer loop
      vertex -9 22.5 7.5
      vertex -8.96722 22.8119 2.5
      vertex -8.96722 22.8119 7.5
    endloop
  endfacet
  facet normal 0.994522 -0.104529 0
    outer loop
      vertex -8.96722 22.8119 2.5
      vertex -9 22.5 7.5
      vertex -9 22.5 2.5
    endloop
  endfacet
  facet normal 0.994522 0.104529 0
    outer loop
      vertex -8.96722 22.1881 7.5
      vertex -9 22.5 2.5
      vertex -9 22.5 7.5
    endloop
  endfacet
  facet normal 0.994522 0.104529 0
    outer loop
      vertex -9 22.5 2.5
      vertex -8.96722 22.1881 7.5
      vertex -8.96722 22.1881 2.5
    endloop
  endfacet
  facet normal 0 -1 0
    outer loop
      vertex -7.65679 23.9918 2.5
      vertex -7.34321 23.9918 7.5
      vertex -7.65679 23.9918 7.5
    endloop
  endfacet
  facet normal 0 -1 -0
    outer loop
      vertex -7.34321 23.9918 7.5
      vertex -7.65679 23.9918 2.5
      vertex -7.34321 23.9918 2.5
    endloop
  endfacet
  facet normal -0.743143 -0.669132 0
    outer loop
      vertex -6.28647 23.3817 2.5
      vertex -6.4963 23.6147 7.5
      vertex -6.4963 23.6147 2.5
    endloop
  endfacet
  facet normal -0.743143 -0.669132 0
    outer loop
      vertex -6.4963 23.6147 7.5
      vertex -6.28647 23.3817 2.5
      vertex -6.28647 23.3817 7.5
    endloop
  endfacet
  facet normal -0.207915 -0.978147 0
    outer loop
      vertex -7.34321 23.9918 2.5
      vertex -7.03647 23.9266 7.5
      vertex -7.34321 23.9918 7.5
    endloop
  endfacet
  facet normal -0.207915 -0.978147 -0
    outer loop
      vertex -7.03647 23.9266 7.5
      vertex -7.34321 23.9918 2.5
      vertex -7.03647 23.9266 2.5
    endloop
  endfacet
  facet normal 0.406735 -0.913546 0
    outer loop
      vertex -8.25 23.799 2.5
      vertex -7.96352 23.9266 7.5
      vertex -8.25 23.799 7.5
    endloop
  endfacet
  facet normal 0.406735 -0.913546 0
    outer loop
      vertex -7.96352 23.9266 7.5
      vertex -8.25 23.799 2.5
      vertex -7.96352 23.9266 2.5
    endloop
  endfacet
  facet normal 0.951056 -0.309019 0
    outer loop
      vertex -8.96722 22.8119 7.5
      vertex -8.87032 23.1101 2.5
      vertex -8.87032 23.1101 7.5
    endloop
  endfacet
  facet normal 0.951056 -0.309019 0
    outer loop
      vertex -8.87032 23.1101 2.5
      vertex -8.96722 22.8119 7.5
      vertex -8.96722 22.8119 2.5
    endloop
  endfacet
  facet normal -0.994522 0.104526 0
    outer loop
      vertex -6.03278 22.1881 2.5
      vertex -6 22.5 7.5
      vertex -6 22.5 2.5
    endloop
  endfacet
  facet normal -0.994522 0.104526 0
    outer loop
      vertex -6 22.5 7.5
      vertex -6.03278 22.1881 2.5
      vertex -6.03278 22.1881 7.5
    endloop
  endfacet
  facet normal -0.207909 0.978148 0
    outer loop
      vertex -7.03647 21.0734 2.5
      vertex -7.34321 21.0082 7.5
      vertex -7.03647 21.0734 7.5
    endloop
  endfacet
  facet normal -0.207909 0.978148 0
    outer loop
      vertex -7.34321 21.0082 7.5
      vertex -7.03647 21.0734 2.5
      vertex -7.34321 21.0082 2.5
    endloop
  endfacet
  facet normal -0.587788 -0.809015 0
    outer loop
      vertex -6.75 23.799 2.5
      vertex -6.4963 23.6147 7.5
      vertex -6.75 23.799 7.5
    endloop
  endfacet
  facet normal -0.587788 -0.809015 -0
    outer loop
      vertex -6.4963 23.6147 7.5
      vertex -6.75 23.799 2.5
      vertex -6.4963 23.6147 2.5
    endloop
  endfacet
  facet normal -0.406736 -0.913546 0
    outer loop
      vertex -7.03647 23.9266 2.5
      vertex -6.75 23.799 7.5
      vertex -7.03647 23.9266 7.5
    endloop
  endfacet
  facet normal -0.406736 -0.913546 -0
    outer loop
      vertex -6.75 23.799 7.5
      vertex -7.03647 23.9266 2.5
      vertex -6.75 23.799 2.5
    endloop
  endfacet
  facet normal 0.866026 -0.499998 0
    outer loop
      vertex -8.87032 23.1101 7.5
      vertex -8.71352 23.3817 2.5
      vertex -8.71352 23.3817 7.5
    endloop
  endfacet
  facet normal 0.866026 -0.499998 0
    outer loop
      vertex -8.71352 23.3817 2.5
      vertex -8.87032 23.1101 7.5
      vertex -8.87032 23.1101 2.5
    endloop
  endfacet
  facet normal 0.587789 -0.809014 0
    outer loop
      vertex -8.5037 23.6147 2.5
      vertex -8.25 23.799 7.5
      vertex -8.5037 23.6147 7.5
    endloop
  endfacet
  facet normal 0.587789 -0.809014 0
    outer loop
      vertex -8.25 23.799 7.5
      vertex -8.5037 23.6147 2.5
      vertex -8.25 23.799 2.5
    endloop
  endfacet
  facet normal 0.207915 -0.978147 0
    outer loop
      vertex -7.96352 23.9266 2.5
      vertex -7.65679 23.9918 7.5
      vertex -7.96352 23.9266 7.5
    endloop
  endfacet
  facet normal 0.207915 -0.978147 0
    outer loop
      vertex -7.65679 23.9918 7.5
      vertex -7.96352 23.9266 2.5
      vertex -7.65679 23.9918 2.5
    endloop
  endfacet
  facet normal 0.743143 -0.669132 0
    outer loop
      vertex -8.71352 23.3817 7.5
      vertex -8.5037 23.6147 2.5
      vertex -8.5037 23.6147 7.5
    endloop
  endfacet
  facet normal 0.743143 -0.669132 0
    outer loop
      vertex -8.5037 23.6147 2.5
      vertex -8.71352 23.3817 7.5
      vertex -8.71352 23.3817 2.5
    endloop
  endfacet
  facet normal -0.994522 -0.104526 0
    outer loop
      vertex -6 22.5 2.5
      vertex -6.03278 22.8119 7.5
      vertex -6.03278 22.8119 2.5
    endloop
  endfacet
  facet normal -0.994522 -0.104526 0
    outer loop
      vertex -6.03278 22.8119 7.5
      vertex -6 22.5 2.5
      vertex -6 22.5 7.5
    endloop
  endfacet
  facet normal -0.951056 0.309017 0
    outer loop
      vertex -6.12968 21.8899 2.5
      vertex -6.03278 22.1881 7.5
      vertex -6.03278 22.1881 2.5
    endloop
  endfacet
  facet normal -0.951056 0.309017 0
    outer loop
      vertex -6.03278 22.1881 7.5
      vertex -6.12968 21.8899 2.5
      vertex -6.12968 21.8899 7.5
    endloop
  endfacet
  facet normal -0.587784 0.809018 0
    outer loop
      vertex -6.4963 21.3853 2.5
      vertex -6.75 21.201 7.5
      vertex -6.4963 21.3853 7.5
    endloop
  endfacet
  facet normal -0.587784 0.809018 0
    outer loop
      vertex -6.75 21.201 7.5
      vertex -6.4963 21.3853 2.5
      vertex -6.75 21.201 2.5
    endloop
  endfacet
  facet normal -0.951056 -0.309019 0
    outer loop
      vertex -6.03278 22.8119 2.5
      vertex -6.12968 23.1101 7.5
      vertex -6.12968 23.1101 2.5
    endloop
  endfacet
  facet normal -0.951056 -0.309019 0
    outer loop
      vertex -6.12968 23.1101 7.5
      vertex -6.03278 22.8119 2.5
      vertex -6.03278 22.8119 7.5
    endloop
  endfacet
  facet normal -0.866026 0.499998 0
    outer loop
      vertex -6.28647 21.6183 2.5
      vertex -6.12968 21.8899 7.5
      vertex -6.12968 21.8899 2.5
    endloop
  endfacet
  facet normal -0.866026 0.499998 0
    outer loop
      vertex -6.12968 21.8899 7.5
      vertex -6.28647 21.6183 2.5
      vertex -6.28647 21.6183 7.5
    endloop
  endfacet
  facet normal -0.406741 0.913543 0
    outer loop
      vertex -6.75 21.201 2.5
      vertex -7.03647 21.0734 7.5
      vertex -6.75 21.201 7.5
    endloop
  endfacet
  facet normal -0.406741 0.913543 0
    outer loop
      vertex -7.03647 21.0734 7.5
      vertex -6.75 21.201 2.5
      vertex -7.03647 21.0734 2.5
    endloop
  endfacet
  facet normal 0.207909 0.978148 -0
    outer loop
      vertex -7.65679 21.0082 2.5
      vertex -7.96352 21.0734 7.5
      vertex -7.65679 21.0082 7.5
    endloop
  endfacet
  facet normal 0.207909 0.978148 0
    outer loop
      vertex -7.96352 21.0734 7.5
      vertex -7.65679 21.0082 2.5
      vertex -7.96352 21.0734 2.5
    endloop
  endfacet
  facet normal 0 1 -0
    outer loop
      vertex -7.34321 21.0082 2.5
      vertex -7.65679 21.0082 7.5
      vertex -7.34321 21.0082 7.5
    endloop
  endfacet
  facet normal 0 1 0
    outer loop
      vertex -7.65679 21.0082 7.5
      vertex -7.34321 21.0082 2.5
      vertex -7.65679 21.0082 2.5
    endloop
  endfacet
  facet normal 0.866026 0.499998 0
    outer loop
      vertex -8.71352 21.6183 7.5
      vertex -8.87032 21.8899 2.5
      vertex -8.87032 21.8899 7.5
    endloop
  endfacet
  facet normal 0.866026 0.499998 0
    outer loop
      vertex -8.87032 21.8899 2.5
      vertex -8.71352 21.6183 7.5
      vertex -8.71352 21.6183 2.5
    endloop
  endfacet
  facet normal 0.951056 0.309017 0
    outer loop
      vertex -8.87032 21.8899 7.5
      vertex -8.96722 22.1881 2.5
      vertex -8.96722 22.1881 7.5
    endloop
  endfacet
  facet normal 0.951056 0.309017 0
    outer loop
      vertex -8.96722 22.1881 2.5
      vertex -8.87032 21.8899 7.5
      vertex -8.87032 21.8899 2.5
    endloop
  endfacet
  facet normal 0.743143 0.669132 0
    outer loop
      vertex -8.5037 21.3853 7.5
      vertex -8.71352 21.6183 2.5
      vertex -8.71352 21.6183 7.5
    endloop
  endfacet
  facet normal 0.743143 0.669132 0
    outer loop
      vertex -8.71352 21.6183 2.5
      vertex -8.5037 21.3853 7.5
      vertex -8.5037 21.3853 2.5
    endloop
  endfacet
  facet normal -0.743143 0.669132 0
    outer loop
      vertex -6.4963 21.3853 2.5
      vertex -6.28647 21.6183 7.5
      vertex -6.28647 21.6183 2.5
    endloop
  endfacet
  facet normal -0.743143 0.669132 0
    outer loop
      vertex -6.28647 21.6183 7.5
      vertex -6.4963 21.3853 2.5
      vertex -6.4963 21.3853 7.5
    endloop
  endfacet
  facet normal 0.587785 0.809017 -0
    outer loop
      vertex -8.25 21.201 2.5
      vertex -8.5037 21.3853 7.5
      vertex -8.25 21.201 7.5
    endloop
  endfacet
  facet normal 0.587785 0.809017 0
    outer loop
      vertex -8.5037 21.3853 7.5
      vertex -8.25 21.201 2.5
      vertex -8.5037 21.3853 2.5
    endloop
  endfacet
  facet normal 0.40674 0.913544 -0
    outer loop
      vertex -7.96352 21.0734 2.5
      vertex -8.25 21.201 7.5
      vertex -7.96352 21.0734 7.5
    endloop
  endfacet
  facet normal 0.40674 0.913544 0
    outer loop
      vertex -8.25 21.201 7.5
      vertex -7.96352 21.0734 2.5
      vertex -8.25 21.201 2.5
    endloop
  endfacet
endsolid OpenSCAD_Model
